<svg width="151" height="26" viewBox="0 0 151 26" fill="none" xmlns="http://www.w3.org/2000/svg">
<path d="M0.87793 25V0.272727H11.5995C13.483 0.272727 15.0647 0.526278 16.3445 1.03338C17.6324 1.54048 18.6024 2.25686 19.2544 3.18253C19.9144 4.10819 20.2444 5.19886 20.2444 6.45454C20.2444 7.36411 20.0432 8.19318 19.6407 8.94176C19.2463 9.69034 18.6909 10.3182 17.9745 10.8253C17.2581 11.3243 16.421 11.6705 15.4632 11.8636V12.1051C16.5257 12.1454 17.4916 12.415 18.3609 12.9141C19.2302 13.4051 19.9224 14.0852 20.4376 14.9545C20.9527 15.8158 21.2103 16.83 21.2103 17.9972C21.2103 19.3494 20.8561 20.5528 20.1478 21.6072C19.4475 22.6617 18.4494 23.4908 17.1535 24.0945C15.8576 24.6982 14.3121 25 12.5171 25H0.87793ZM7.591 19.6392H10.7302C11.8571 19.6392 12.7023 19.4299 13.2657 19.0114C13.8292 18.5848 14.1109 17.9569 14.1109 17.1278C14.1109 16.5483 13.9781 16.0573 13.7124 15.6548C13.4468 15.2524 13.0685 14.9465 12.5775 14.7372C12.0945 14.5279 11.511 14.4233 10.8268 14.4233H7.591V19.6392ZM7.591 10.2699H10.3438C10.9314 10.2699 11.4506 10.1773 11.9014 9.99219C12.3521 9.80705 12.7023 9.54143 12.9518 9.19531C13.2094 8.84115 13.3382 8.41051 13.3382 7.90341C13.3382 7.13873 13.0645 6.55516 12.5171 6.1527C11.9698 5.74219 11.2776 5.53693 10.4404 5.53693H7.591V10.2699ZM32.5718 25.3381C30.5917 25.3381 28.8853 24.9598 27.4525 24.2031C26.0278 23.4384 24.9291 22.3437 24.1563 20.919C23.3917 19.4863 23.0093 17.7718 23.0093 15.7756C23.0093 13.8598 23.3957 12.1856 24.1684 10.7528C24.9411 9.32008 26.0318 8.20526 27.4404 7.40838C28.849 6.61151 30.5112 6.21307 32.4269 6.21307C33.8275 6.21307 35.0953 6.4304 36.2302 6.86506C37.3651 7.29972 38.3351 7.93158 39.14 8.76065C39.9449 9.58168 40.5647 10.5798 40.9994 11.755C41.434 12.9302 41.6514 14.2543 41.6514 15.7273V17.2727H25.086V13.6023H35.5178C35.5098 13.071 35.373 12.6042 35.1073 12.2017C34.8498 11.7912 34.4996 11.4732 34.0569 11.2479C33.6222 11.0144 33.1272 10.8977 32.5718 10.8977C32.0325 10.8977 31.5375 11.0144 31.0867 11.2479C30.636 11.4732 30.2738 11.7872 30.0001 12.1896C29.7345 12.5921 29.5936 13.063 29.5775 13.6023V17.5625C29.5775 18.1581 29.7023 18.6894 29.9518 19.1562C30.2013 19.6231 30.5595 19.9893 31.0264 20.255C31.4932 20.5206 32.0567 20.6534 32.7167 20.6534C33.1755 20.6534 33.5941 20.589 33.9724 20.4602C34.3588 20.3314 34.6888 20.1463 34.9624 19.9048C35.2361 19.6553 35.4374 19.3575 35.5661 19.0114H41.6514C41.4421 20.2992 40.9471 21.4181 40.1663 22.3679C39.3855 23.3097 38.3512 24.0421 37.0633 24.5653C35.7835 25.0805 34.2863 25.3381 32.5718 25.3381ZM44.371 25V6.45454H50.8426V9.98011H51.0358C51.3738 8.67614 51.9091 7.7223 52.6416 7.11861C53.3821 6.51491 54.2474 6.21307 55.2375 6.21307C55.5273 6.21307 55.813 6.23722 56.0947 6.28551C56.3845 6.32576 56.6622 6.38613 56.9278 6.46662V12.1534C56.5978 12.0407 56.1913 11.9562 55.7084 11.8999C55.2254 11.8435 54.8109 11.8153 54.4648 11.8153C53.8128 11.8153 53.2252 11.9643 52.702 12.2621C52.1868 12.5518 51.7803 12.9624 51.4825 13.4936C51.1847 14.0168 51.0358 14.6326 51.0358 15.3409V25H44.371ZM65.778 14.5682V25H59.1132V6.45454H65.4399V9.98011H65.6331C66.0355 8.80492 66.7439 7.88329 67.7581 7.2152C68.7803 6.54711 69.9716 6.21307 71.3319 6.21307C72.644 6.21307 73.7829 6.51491 74.7488 7.11861C75.7228 7.71425 76.4754 8.53527 77.0067 9.58168C77.546 10.6281 77.8116 11.8234 77.8035 13.1676V25H71.1388V14.5682C71.1468 13.6506 70.9134 12.9302 70.4385 12.407C69.9716 11.8838 69.3196 11.6222 68.4825 11.6222C67.9352 11.6222 67.4562 11.7429 67.0457 11.9844C66.6433 12.2178 66.3334 12.5559 66.116 12.9986C65.8987 13.4332 65.786 13.9564 65.778 14.5682ZM86.2613 25.2898C85.078 25.2898 84.0316 25.0966 83.1221 24.7102C82.2206 24.3158 81.5122 23.7202 80.9971 22.9233C80.4819 22.1264 80.2243 21.1122 80.2243 19.8807C80.2243 18.8665 80.3974 18.0012 80.7435 17.2848C81.0896 16.5604 81.5726 15.9688 82.1924 15.5099C82.8122 15.0511 83.5326 14.701 84.3536 14.4595C85.1827 14.218 86.0761 14.0611 87.034 13.9886C88.0724 13.9081 88.9055 13.8116 89.5333 13.6989C90.1692 13.5781 90.628 13.4131 90.9097 13.2038C91.1914 12.9865 91.3323 12.7008 91.3323 12.3466V12.2983C91.3323 11.8153 91.1472 11.4451 90.7769 11.1875C90.4066 10.9299 89.9317 10.8011 89.3522 10.8011C88.7163 10.8011 88.1971 10.942 87.7947 11.2237C87.4002 11.4974 87.1628 11.92 87.0823 12.4915H80.9488C81.0293 11.3646 81.3875 10.3262 82.0233 9.37642C82.6673 8.41856 83.605 7.65388 84.8366 7.08239C86.0681 6.50284 87.6055 6.21307 89.4488 6.21307C90.7769 6.21307 91.9682 6.37003 93.0226 6.68395C94.0771 6.98982 94.9746 7.42045 95.7151 7.97585C96.4556 8.5232 97.0191 9.16714 97.4055 9.90767C97.7999 10.6402 97.9971 11.437 97.9971 12.2983V25H91.767V22.392H91.6221C91.2518 23.0843 90.801 23.6437 90.2698 24.0703C89.7466 24.4969 89.1469 24.8068 88.4708 25C87.8027 25.1932 87.0662 25.2898 86.2613 25.2898ZM88.4346 21.0881C88.9417 21.0881 89.4166 20.9834 89.8593 20.7741C90.31 20.5649 90.6763 20.263 90.958 19.8686C91.2397 19.4742 91.3806 18.9953 91.3806 18.4318V16.8864C91.2035 16.9588 91.0144 17.0272 90.8131 17.0916C90.6199 17.156 90.4107 17.2164 90.1853 17.2727C89.968 17.3291 89.7345 17.3814 89.485 17.4297C89.2435 17.478 88.99 17.5223 88.7243 17.5625C88.2092 17.643 87.7866 17.7758 87.4566 17.9609C87.1346 18.138 86.8931 18.3594 86.7322 18.625C86.5792 18.8826 86.5028 19.1723 86.5028 19.4943C86.5028 20.0095 86.6839 20.4039 87.0461 20.6776C87.4083 20.9512 87.8711 21.0881 88.4346 21.0881ZM101.085 25V0.272727H107.75V9.69034H107.846C108.088 9.0625 108.442 8.48698 108.909 7.96378C109.376 7.43253 109.955 7.00994 110.647 6.69602C111.34 6.37405 112.145 6.21307 113.062 6.21307C114.286 6.21307 115.449 6.53906 116.552 7.19105C117.662 7.84304 118.564 8.86932 119.256 10.2699C119.956 11.6705 120.307 13.4896 120.307 15.7273C120.307 17.8684 119.973 19.6432 119.304 21.0518C118.644 22.4605 117.759 23.5109 116.648 24.2031C115.545 24.8954 114.334 25.2415 113.014 25.2415C112.145 25.2415 111.368 25.1006 110.684 24.8189C110.008 24.5291 109.428 24.1387 108.945 23.6477C108.47 23.1487 108.104 22.5852 107.846 21.9574H107.701V25H101.085ZM107.605 15.7273C107.605 16.6288 107.722 17.4096 107.955 18.0696C108.196 18.7216 108.535 19.2287 108.969 19.5909C109.412 19.9451 109.939 20.1222 110.551 20.1222C111.163 20.1222 111.682 19.9491 112.108 19.603C112.543 19.2488 112.873 18.7457 113.098 18.0938C113.332 17.4337 113.449 16.6449 113.449 15.7273C113.449 14.8097 113.332 14.0249 113.098 13.3729C112.873 12.7128 112.543 12.2098 112.108 11.8636C111.682 11.5095 111.163 11.3324 110.551 11.3324C109.939 11.3324 109.412 11.5095 108.969 11.8636C108.535 12.2098 108.196 12.7128 107.955 13.3729C107.722 14.0249 107.605 14.8097 107.605 15.7273ZM131.982 25.3381C130.002 25.3381 128.295 24.9598 126.863 24.2031C125.438 23.4384 124.339 22.3437 123.566 20.919C122.802 19.4863 122.419 17.7718 122.419 15.7756C122.419 13.8598 122.806 12.1856 123.579 10.7528C124.351 9.32008 125.442 8.20526 126.851 7.40838C128.259 6.61151 129.921 6.21307 131.837 6.21307C133.238 6.21307 134.505 6.4304 135.64 6.86506C136.775 7.29972 137.745 7.93158 138.55 8.76065C139.355 9.58168 139.975 10.5798 140.41 11.755C140.844 12.9302 141.062 14.2543 141.062 15.7273V17.2727H124.496V13.6023H134.928C134.92 13.071 134.783 12.6042 134.517 12.2017C134.26 11.7912 133.91 11.4732 133.467 11.2479C133.032 11.0144 132.537 10.8977 131.982 10.8977C131.443 10.8977 130.948 11.0144 130.497 11.2479C130.046 11.4732 129.684 11.7872 129.41 12.1896C129.145 12.5921 129.004 13.063 128.988 13.6023V17.5625C128.988 18.1581 129.112 18.6894 129.362 19.1562C129.611 19.6231 129.97 19.9893 130.437 20.255C130.903 20.5206 131.467 20.6534 132.127 20.6534C132.586 20.6534 133.004 20.589 133.383 20.4602C133.769 20.3314 134.099 20.1463 134.373 19.9048C134.646 19.6553 134.848 19.3575 134.976 19.0114H141.062C140.852 20.2992 140.357 21.4181 139.576 22.3679C138.796 23.3097 137.761 24.0421 136.473 24.5653C135.194 25.0805 133.696 25.3381 131.982 25.3381Z" fill="#F5F5F5"/>
<path d="M147.403 25.3864C146.47 25.3864 145.669 25.0604 145.001 24.4084C144.341 23.7483 144.015 22.9474 144.023 22.0057C144.015 21.0881 144.341 20.3033 145.001 19.6513C145.669 18.9993 146.47 18.6733 147.403 18.6733C148.289 18.6733 149.07 18.9993 149.746 19.6513C150.43 20.3033 150.776 21.0881 150.784 22.0057C150.776 22.6335 150.611 23.205 150.289 23.7202C149.975 24.2273 149.565 24.6338 149.057 24.9396C148.55 25.2375 147.999 25.3864 147.403 25.3864Z" fill="#54FF04"/>
</svg>
