<svg width="1004" height="188" viewBox="0 0 1004 188" fill="none" xmlns="http://www.w3.org/2000/svg">
<path d="M170.732 71.3636V72.3636H171.819L171.728 71.2802L170.732 71.3636ZM120.661 71.3636L119.664 71.449L119.743 72.3636H120.661V71.3636ZM117.82 60.0888L116.904 60.4904L116.907 60.4971L116.91 60.5038L117.82 60.0888ZM111.605 51.3885L110.915 52.1118L110.923 52.1199L110.932 52.1277L111.605 51.3885ZM102.106 45.7067L101.763 46.6461L101.776 46.6508L102.106 45.7067ZM68.3701 49.7017L67.7961 48.8829L67.7921 48.8857L68.3701 49.7017ZM55.4085 67.0135L54.478 66.6471L54.4755 66.6535L55.4085 67.0135ZM55.4973 122.056L54.5667 122.422L54.5703 122.431L55.4973 122.056ZM68.5477 138.924L67.993 139.756L67.999 139.76L68.5477 138.924ZM101.307 142.83L101.604 143.785L101.611 143.783L101.618 143.78L101.307 142.83ZM110.717 137.77L111.353 138.542H111.353L110.717 137.77ZM117.198 129.869L116.321 129.389L116.318 129.395L117.198 129.869ZM120.661 119.304L120.668 118.304L119.802 118.298L119.672 119.154L120.661 119.304ZM170.732 119.659L171.729 119.736L171.811 118.667L170.739 118.659L170.732 119.659ZM164.251 143.185L165.156 143.611L165.157 143.608L164.251 143.185ZM148.359 165.202L149.06 165.916L149.06 165.916L148.359 165.202ZM123.058 181.36L122.682 180.434L123.058 181.36ZM43.0683 176.744L42.5914 177.623L42.593 177.623L43.0683 176.744ZM11.7295 145.138L10.8529 145.62L10.8545 145.623L11.7295 145.138ZM11.9958 42.9545L12.8668 43.4459L12.8677 43.4443L11.9958 42.9545ZM43.6009 11.4382L44.0732 12.3197L44.0762 12.318L43.6009 11.4382ZM119.684 5.40127L119.993 4.45028L119.684 5.40127ZM145.075 19.1619L144.436 19.9317L144.44 19.9348L145.075 19.1619ZM162.653 41.2678L161.761 41.7198L162.653 41.2678ZM170.732 70.3636H120.661V72.3636H170.732V70.3636ZM121.657 71.2782C121.293 67.035 120.321 63.1633 118.73 59.6738L116.91 60.5038C118.396 63.7614 119.318 67.4063 119.664 71.449L121.657 71.2782ZM118.735 59.6871C117.201 56.1883 115.048 53.1724 112.279 50.6493L110.932 52.1277C113.489 54.4578 115.479 57.2421 116.904 60.4904L118.735 59.6871ZM112.296 50.6651C109.579 48.0717 106.286 46.1071 102.436 44.7626L101.776 46.6508C105.383 47.9104 108.423 49.7337 110.915 52.1118L112.296 50.6651ZM102.449 44.7673C98.5914 43.359 94.2405 42.6648 89.4106 42.6648V44.6648C94.0504 44.6648 98.1631 45.3318 101.763 46.646L102.449 44.7673ZM89.4106 42.6648C80.9575 42.6648 73.7341 44.7201 67.7961 48.8829L68.9441 50.5205C74.4881 46.634 81.2917 44.6648 89.4106 44.6648V42.6648ZM67.7921 48.8857C61.9274 53.0398 57.4968 58.9793 54.478 66.6472L56.339 67.3798C59.2387 60.0146 63.4492 54.4128 68.9481 50.5177L67.7921 48.8857ZM54.4755 66.6535C51.5198 74.3143 50.0583 83.4687 50.0583 94.0909H52.0583C52.0583 83.6431 53.497 74.7459 56.3414 67.3735L54.4755 66.6535ZM50.0583 94.0909C50.0583 105.299 51.5478 114.754 54.5668 122.422L56.4277 121.69C53.5282 114.325 52.0583 105.137 52.0583 94.0909H50.0583ZM54.5703 122.431C57.6504 130.041 62.1159 135.838 67.993 139.756L69.1024 138.092C63.6158 134.434 59.381 128.986 56.4242 121.681L54.5703 122.431ZM67.999 139.76C73.8708 143.613 80.9054 145.517 89.0555 145.517V143.517C81.2255 143.517 74.5882 141.692 69.0963 138.088L67.999 139.76ZM89.0555 145.517C93.6936 145.517 97.8803 144.945 101.604 143.785L101.01 141.875C97.5129 142.965 93.5319 143.517 89.0555 143.517V145.517ZM101.618 143.78C105.335 142.562 108.584 140.819 111.353 138.542L110.082 136.997C107.524 139.101 104.5 140.731 100.995 141.88L101.618 143.78ZM111.353 138.542C114.118 136.269 116.361 133.533 118.079 130.343L116.318 129.395C114.721 132.359 112.644 134.891 110.082 136.997L111.353 138.542ZM118.076 130.349C119.854 127.099 121.042 123.464 121.649 119.454L119.672 119.154C119.096 122.957 117.976 126.365 116.321 129.389L118.076 130.349ZM120.654 120.304L170.725 120.659L170.739 118.659L120.668 118.304L120.654 120.304ZM169.735 119.582C169.153 127.141 167.03 134.866 163.345 142.762L165.157 143.608C168.929 135.525 171.126 127.566 171.729 119.736L169.735 119.582ZM163.346 142.76C159.672 150.573 154.448 157.817 147.659 164.489L149.06 165.916C156.002 159.094 161.372 151.659 165.156 143.611L163.346 142.76ZM147.659 164.489C140.958 171.074 132.639 176.392 122.682 180.434L123.434 182.287C133.6 178.16 142.149 172.707 149.06 165.916L147.659 164.489ZM122.682 180.434C112.763 184.459 101.206 186.486 87.9902 186.486V188.486C101.408 188.486 113.229 186.429 123.434 182.287L122.682 180.434ZM87.9902 186.486C71.4475 186.486 56.6399 182.938 43.5435 175.864L42.593 177.623C56.0118 184.872 71.1521 188.486 87.9902 188.486V186.486ZM43.5452 175.865C30.5244 168.8 20.212 158.406 12.6045 144.654L10.8545 145.623C18.6353 159.688 29.2153 170.365 42.5914 177.623L43.5452 175.865ZM12.6061 144.657C5.071 130.931 1.27708 114.09 1.27708 94.0909H-0.722922C-0.722922 114.338 3.1181 131.529 10.8529 145.62L12.6061 144.657ZM1.27708 94.0909C1.27708 73.9755 5.15895 57.1098 12.8668 43.4459L11.1248 42.4632C3.2077 56.4982 -0.722922 73.7233 -0.722922 94.0909H1.27708ZM12.8677 43.4443C20.5929 29.6911 30.9937 19.3265 44.0732 12.3197L43.1287 10.5567C29.693 17.7544 19.0238 28.4008 11.124 42.4648L12.8677 43.4443ZM44.0762 12.318C57.1757 5.24199 71.8065 1.69601 87.9902 1.69601V-0.303986C71.5033 -0.303986 56.5413 3.31151 43.1257 10.5584L44.0762 12.318ZM87.9902 1.69601C99.3808 1.69601 109.84 3.25186 119.375 6.35226L119.993 4.45028C110.234 1.27701 99.5635 -0.303986 87.9902 -0.303986V1.69601ZM119.375 6.35226C128.911 9.45289 137.261 13.9811 144.436 19.9317L145.713 18.3922C138.329 12.2689 129.752 7.62333 119.993 4.45028L119.375 6.35226ZM144.44 19.9348C151.608 25.8208 157.382 33.0786 161.761 41.7198L163.545 40.8157C159.046 31.938 153.101 24.4585 145.709 18.3891L144.44 19.9348ZM161.761 41.7198C166.133 50.3479 168.797 60.2514 169.735 71.4471L171.728 71.2802C170.772 59.867 168.05 49.7066 163.545 40.8157L161.761 41.7198ZM222.785 178.697L222.295 179.569L222.299 179.571L222.785 178.697ZM198.549 154.016L197.665 154.485L197.666 154.487L198.549 154.016ZM198.549 80.419L199.431 80.8899L199.432 80.8878L198.549 80.419ZM222.785 55.7386L223.271 56.6126L223.275 56.6105L222.785 55.7386ZM298.779 55.7386L298.29 56.6105L298.293 56.6125L298.779 55.7386ZM323.016 80.419L322.133 80.8878L322.134 80.8899L323.016 80.419ZM323.016 154.016L323.898 154.487L323.899 154.485L323.016 154.016ZM298.779 178.697L299.265 179.571L299.269 179.569L298.779 178.697ZM271.88 147.092L272.557 147.827L271.88 147.092ZM278.893 135.195L279.845 135.502L278.893 135.195ZM278.893 98.441L277.941 98.7474L277.942 98.7506L278.893 98.441ZM271.88 86.5447L272.557 85.8094L271.88 86.5447ZM242.671 98.441L243.622 98.7506L243.623 98.7474L242.671 98.441ZM242.671 135.195L243.623 134.889L242.671 135.195ZM260.782 186.486C246.118 186.486 233.627 183.583 223.271 177.823L222.299 179.571C233.013 185.53 245.854 188.486 260.782 188.486V186.486ZM223.275 177.825C212.904 171.999 204.962 163.91 199.431 153.545L197.666 154.487C203.38 165.193 211.596 173.558 222.295 179.569L223.275 177.825ZM199.432 153.548C193.898 143.12 191.115 131.005 191.115 117.173H189.115C189.115 131.278 191.954 143.724 197.665 154.485L199.432 153.548ZM191.115 117.173C191.115 103.342 193.898 91.2572 199.431 80.8899L197.666 79.9482C191.954 90.6509 189.115 103.069 189.115 117.173H191.115ZM199.432 80.8878C204.963 70.4651 212.904 62.3786 223.271 56.6125L222.299 54.8647C211.596 60.8174 203.379 69.1845 197.665 79.9502L199.432 80.8878ZM223.275 56.6105C233.63 50.7929 246.119 47.8608 260.782 47.8608V45.8608C245.852 45.8608 233.01 48.8473 222.295 54.8668L223.275 56.6105ZM260.782 47.8608C275.445 47.8608 287.934 50.7929 298.29 56.6105L299.269 54.8668C288.554 48.8473 275.712 45.8608 260.782 45.8608V47.8608ZM298.293 56.6125C308.661 62.3786 316.601 70.4651 322.133 80.8878L323.899 79.9502C318.186 69.1845 309.968 60.8174 299.265 54.8647L298.293 56.6125ZM322.134 80.8899C327.667 91.2572 330.45 103.342 330.45 117.173H332.45C332.45 103.069 329.61 90.6509 323.898 79.9482L322.134 80.8899ZM330.45 117.173C330.45 131.005 327.667 143.12 322.133 153.548L323.899 154.485C329.61 143.724 332.45 131.278 332.45 117.173H330.45ZM322.134 153.545C316.602 163.91 308.66 171.999 298.29 177.825L299.269 179.569C309.969 173.558 318.184 165.193 323.898 154.487L322.134 153.545ZM298.293 177.823C287.937 183.583 275.447 186.486 260.782 186.486V188.486C275.71 188.486 288.552 185.53 299.265 179.571L298.293 177.823ZM261.137 152.264C265.529 152.264 269.352 150.781 272.557 147.827L271.202 146.356C268.37 148.966 265.032 150.264 261.137 150.264V152.264ZM272.557 147.827C275.737 144.897 278.151 140.764 279.845 135.502L277.941 134.889C276.32 139.924 274.059 143.723 271.202 146.356L272.557 147.827ZM279.845 135.502C281.542 130.228 282.379 123.994 282.379 116.818H280.379C280.379 123.847 279.558 129.864 277.941 134.889L279.845 135.502ZM282.379 116.818C282.379 109.585 281.543 103.349 279.844 98.1315L277.942 98.7506C279.558 103.713 280.379 109.729 280.379 116.818H282.379ZM279.845 98.1347C278.151 92.8719 275.737 88.7394 272.557 85.8094L271.202 87.2801C274.059 89.9135 276.32 93.7119 277.941 98.7474L279.845 98.1347ZM272.557 85.8094C269.352 82.8557 265.529 81.3722 261.137 81.3722V83.3722C265.032 83.3722 268.37 84.6703 271.202 87.2801L272.557 85.8094ZM261.137 81.3722C256.525 81.3722 252.528 82.8448 249.199 85.7966L250.526 87.2929C253.471 84.6812 256.99 83.3722 261.137 83.3722V81.3722ZM249.199 85.7966C245.895 88.7268 243.416 92.8636 241.72 98.1347L243.623 98.7474C245.241 93.7202 247.557 89.9261 250.526 87.2929L249.199 85.7966ZM241.721 98.1315C240.022 103.349 239.186 109.585 239.186 116.818H241.186C241.186 109.729 242.007 103.713 243.622 98.7506L241.721 98.1315ZM239.186 116.818C239.186 123.994 240.022 130.228 241.72 135.502L243.623 134.889C242.006 129.864 241.186 123.847 241.186 116.818H239.186ZM241.72 135.502C243.416 140.773 245.895 144.91 249.199 147.84L250.526 146.343C247.557 143.71 245.241 139.916 243.623 134.889L241.72 135.502ZM249.199 147.84C252.528 150.792 256.525 152.264 261.137 152.264V150.264C256.99 150.264 253.471 148.955 250.526 146.343L249.199 147.84ZM401.592 108.295L400.592 108.282V108.295H401.592ZM401.592 185V186H402.592V185H401.592ZM352.586 185H351.586V186H352.586V185ZM352.586 48.6364V47.6364H351.586V48.6364H352.586ZM399.106 48.6364H400.106V47.6364H399.106V48.6364ZM399.106 74.5597H398.106V75.5597H399.106V74.5597ZM400.527 74.5597V75.5597H401.241L401.473 74.8837L400.527 74.5597ZM416.152 54.2294L415.604 53.3923L415.601 53.3943L416.152 54.2294ZM467.554 53.5192L467.024 54.3672L467.033 54.3723L467.554 53.5192ZM484.156 71.63L483.264 72.0827L483.267 72.0881L484.156 71.63ZM490.015 97.9972L489.015 97.9912V97.9972H490.015ZM490.015 185V186H491.015V185H490.015ZM441.009 185H440.009V186H441.009V185ZM441.009 108.295L440.009 108.287V108.295H441.009ZM435.86 92.4041L435.114 93.0699L435.12 93.0762L435.86 92.4041ZM410.914 89.2969L411.415 90.1619L411.421 90.1588L410.914 89.2969ZM404.078 96.7543L404.972 97.2015L404.975 97.1949L404.078 96.7543ZM400.592 108.295V185H402.592V108.295H400.592ZM401.592 184H352.586V186H401.592V184ZM353.586 185V48.6364H351.586V185H353.586ZM352.586 49.6364H399.106V47.6364H352.586V49.6364ZM398.106 48.6364V74.5597H400.106V48.6364H398.106ZM399.106 75.5597H400.527V73.5597H399.106V75.5597ZM401.473 74.8837C404.362 66.4469 409.434 59.8521 416.702 55.0645L415.601 53.3943C407.955 58.4315 402.61 65.3902 399.58 74.2357L401.473 74.8837ZM416.699 55.0665C424.034 50.2723 432.599 47.8608 442.43 47.8608V45.8608C432.256 45.8608 423.302 48.3617 415.604 53.3923L416.699 55.0665ZM442.43 47.8608C451.919 47.8608 460.104 50.0419 467.024 54.3672L468.084 52.6712C460.8 48.1186 452.236 45.8608 442.43 45.8608V47.8608ZM467.033 54.3723C474.031 58.6526 479.439 64.5488 483.264 72.0827L485.047 71.1773C481.06 63.3228 475.4 57.1452 468.076 52.6661L467.033 54.3723ZM483.267 72.0881C487.148 79.6195 489.074 88.2455 489.015 97.9912L491.015 98.0031C491.075 87.9808 489.094 79.0287 485.045 71.1718L483.267 72.0881ZM489.015 97.9972V185H491.015V97.9972H489.015ZM490.015 184H441.009V186H490.015V184ZM442.009 185V108.295H440.009V185H442.009ZM442.009 108.304C442.07 101.383 440.307 95.8156 436.601 91.732L435.12 93.0762C438.397 96.6867 440.067 101.714 440.01 108.287L442.009 108.304ZM436.607 91.7383C432.947 87.6374 427.858 85.6335 421.478 85.6335V87.6335C427.409 87.6335 431.908 89.4767 435.114 93.0699L436.607 91.7383ZM421.478 85.6335C417.302 85.6335 413.6 86.5562 410.407 88.4349L411.421 90.1588C414.264 88.4864 417.605 87.6335 421.478 87.6335V85.6335ZM410.412 88.4318C407.271 90.2535 404.86 92.8921 403.18 96.3136L404.975 97.1949C406.492 94.106 408.638 91.773 411.415 90.1619L410.412 88.4318ZM403.183 96.307C401.503 99.6682 400.653 103.671 400.592 108.282L402.592 108.309C402.65 103.923 403.457 100.232 404.972 97.2015L403.183 96.307ZM596.778 48.6364H597.778V47.6364H596.778V48.6364ZM596.778 84.1477V85.1477H597.778V84.1477H596.778ZM506.935 84.1477H505.935V85.1477H506.935V84.1477ZM506.935 48.6364V47.6364H505.935V48.6364H506.935ZM524.335 15.9659V14.9659H523.335V15.9659H524.335ZM573.341 15.9659H574.341V14.9659H573.341V15.9659ZM574.317 145.938L573.423 146.385L573.427 146.393L573.432 146.402L574.317 145.938ZM577.336 148.778L576.904 149.681L576.921 149.688L576.937 149.695L577.336 148.778ZM587.723 149.134L587.549 148.149L587.544 148.15L587.723 149.134ZM592.162 148.246L593.141 148.044L592.931 147.023L591.919 147.276L592.162 148.246ZM599.264 182.692L599.549 183.65L600.429 183.389L600.244 182.49L599.264 182.692ZM589.854 185.089L589.628 184.115L589.625 184.115L589.854 185.089ZM575.471 186.953L575.524 187.952L575.525 187.952L575.471 186.953ZM547.151 183.491L546.79 184.423L546.796 184.426L547.151 183.491ZM529.928 169.553L529.074 170.072L529.928 169.553ZM524.335 145.76L525.335 145.772V145.76H524.335ZM595.778 48.6364V84.1477H597.778V48.6364H595.778ZM596.778 83.1477H506.935V85.1477H596.778V83.1477ZM507.935 84.1477V48.6364H505.935V84.1477H507.935ZM506.935 49.6364H596.778V47.6364H506.935V49.6364ZM524.335 16.9659H573.341V14.9659H524.335V16.9659ZM572.341 15.9659V141.143H574.341V15.9659H572.341ZM572.341 141.143C572.341 143.148 572.685 144.908 573.423 146.385L575.212 145.49C574.648 144.362 574.341 142.927 574.341 141.143H572.341ZM573.432 146.402C574.19 147.85 575.364 148.944 576.904 149.681L577.767 147.876C576.585 147.311 575.746 146.51 575.203 145.473L573.432 146.402ZM576.937 149.695C578.466 150.36 580.361 150.666 582.574 150.666V148.666C580.525 148.666 578.928 148.38 577.735 147.861L576.937 149.695ZM582.574 150.666C584.13 150.666 585.908 150.48 587.902 150.117L587.544 148.15C585.631 148.497 583.977 148.666 582.574 148.666V150.666ZM587.897 150.118C589.913 149.763 591.421 149.462 592.404 149.216L591.919 147.276C591.008 147.503 589.558 147.794 587.549 148.149L587.897 150.118ZM591.182 148.448L598.285 182.894L600.244 182.49L593.141 148.044L591.182 148.448ZM598.979 181.733C596.819 182.376 593.705 183.169 589.628 184.115L590.08 186.063C594.17 185.114 597.33 184.31 599.549 183.65L598.979 181.733ZM589.625 184.115C585.674 185.045 580.942 185.661 575.418 185.955L575.525 187.952C581.128 187.654 585.984 187.027 590.083 186.062L589.625 184.115ZM575.419 185.955C564.263 186.542 554.972 185.392 547.506 182.556L546.796 184.426C554.6 187.39 564.189 188.548 575.524 187.952L575.419 185.955ZM547.513 182.558C540.06 179.67 534.503 175.158 530.783 169.033L529.074 170.072C533.047 176.613 538.972 181.393 546.79 184.423L547.513 182.558ZM530.783 169.033C527.057 162.9 525.218 155.167 525.335 145.772L523.335 145.748C523.215 155.411 525.105 163.539 529.074 170.072L530.783 169.033ZM525.335 145.76V15.9659H523.335V145.76H525.335ZM632.94 182.869L632.54 183.786L632.549 183.79L632.94 182.869ZM617.315 169.73L616.476 170.273L617.315 169.73ZM615.451 128.271L616.352 128.706L616.353 128.702L615.451 128.271ZM626.104 115.22L626.699 116.024L626.104 115.22ZM641.996 107.496L641.716 106.536L641.714 106.537L641.996 107.496ZM661.705 104.034L661.78 105.031L661.782 105.031L661.705 104.034ZM680.082 101.903L680.258 102.888L680.268 102.886L680.082 101.903ZM690.203 98.2635L690.799 99.0662L690.806 99.0608L690.813 99.0553L690.203 98.2635ZM689.226 83.4375L688.655 84.2584L689.226 83.4375ZM667.298 83.7038L667.868 84.5254L667.871 84.5231L667.298 83.7038ZM662.06 93.0256V94.0256H662.929L663.05 93.165L662.06 93.0256ZM616.96 93.0256L615.963 92.9543L615.886 94.0256H616.96V93.0256ZM624.862 70.1207L624.032 69.5628L624.031 69.5644L624.862 70.1207ZM645.547 53.2528L645.968 54.16L645.973 54.1577L645.547 53.2528ZM705.739 50.3232L705.453 51.2816L705.46 51.2836L705.739 50.3232ZM725.536 59.8224L724.936 60.6225L724.942 60.6266L725.536 59.8224ZM737.965 74.027L737.079 74.4896L737.085 74.5011L737.965 74.027ZM742.315 185V186H743.315V185H742.315ZM696.506 185H695.506V186H696.506V185ZM696.506 165.824H697.506V164.824H696.506V165.824ZM695.44 165.824V164.824H694.841L694.559 165.352L695.44 165.824ZM685.497 178.164L684.871 177.384L684.865 177.389L685.497 178.164ZM672.269 185L671.995 184.038L671.992 184.039L672.269 185ZM682.479 153.928L682.058 153.021L682.051 153.023L682.479 153.928ZM690.558 147.269L689.744 146.688L690.558 147.269ZM693.665 125.341H694.665V123.851L693.286 124.415L693.665 125.341ZM689.492 126.85L689.188 125.898L689.176 125.901L689.492 126.85ZM684.876 128.182L684.633 127.212L684.625 127.214L684.876 128.182ZM679.727 129.336L679.537 128.354L679.531 128.355L679.727 129.336ZM674.134 130.312L673.984 129.324L673.979 129.324L674.134 130.312ZM664.812 133.242L665.294 134.118L665.301 134.114L664.812 133.242ZM659.485 138.125L658.63 137.607L658.625 137.614L659.485 138.125ZM661.793 153.217L662.396 152.419L661.793 153.217ZM656.023 186.131C647.431 186.131 639.874 184.728 633.331 181.949L632.549 183.79C639.383 186.692 647.214 188.131 656.023 188.131V186.131ZM633.341 181.953C626.885 179.129 621.832 174.875 618.155 169.187L616.476 170.273C620.374 176.304 625.738 180.81 632.54 183.785L633.341 181.953ZM618.155 169.187C614.499 163.531 612.634 156.277 612.634 147.358H610.634C610.634 156.549 612.556 164.21 616.476 170.273L618.155 169.187ZM612.634 147.358C612.634 140.011 613.888 133.806 616.352 128.706L614.551 127.836C611.925 133.271 610.634 139.79 610.634 147.358H612.634ZM616.353 128.702C618.831 123.516 622.279 119.296 626.699 116.024L625.51 114.416C620.815 117.891 617.161 122.372 614.549 127.839L616.353 128.702ZM626.699 116.024C631.153 112.727 636.341 110.202 642.278 108.456L641.714 106.537C635.576 108.342 630.171 110.966 625.51 114.416L626.699 116.024ZM642.275 108.457C648.298 106.702 654.799 105.559 661.78 105.031L661.629 103.037C654.525 103.574 647.886 104.739 641.716 106.536L642.275 108.457ZM661.782 105.031C669.432 104.438 675.595 103.725 680.258 102.888L679.905 100.919C675.335 101.739 669.247 102.446 661.627 103.037L661.782 105.031ZM680.268 102.886C684.987 101.99 688.542 100.742 690.799 99.0662L689.606 97.4608C687.72 98.8623 684.527 100.041 679.895 100.921L680.268 102.886ZM690.813 99.0553C693.129 97.269 694.31 94.8761 694.31 91.9602H692.31C692.31 94.2527 691.419 96.062 689.592 97.4717L690.813 99.0553ZM694.31 91.9602V91.6051H692.31V91.9602H694.31ZM694.31 91.6051C694.31 87.7539 692.81 84.7125 689.797 82.6166L688.655 84.2584C691.087 85.9503 692.31 88.354 692.31 91.6051H694.31ZM689.797 82.6166C686.865 80.5768 683.158 79.5966 678.75 79.5966V81.5966C682.865 81.5966 686.142 82.5103 688.655 84.2584L689.797 82.6166ZM678.75 79.5966C673.929 79.5966 669.895 80.6651 666.724 82.8846L667.871 84.5231C670.619 82.5995 674.219 81.5966 678.75 81.5966V79.5966ZM666.728 82.8822C663.553 85.0852 661.692 88.4684 661.07 92.8861L663.05 93.165C663.611 89.1784 665.242 86.3471 667.868 84.5254L666.728 82.8822ZM662.06 92.0256H616.96V94.0256H662.06V92.0256ZM617.958 93.0968C618.537 84.9864 621.112 77.5183 625.693 70.6771L624.031 69.5644C619.259 76.691 616.567 84.4928 615.963 92.9543L617.958 93.0968ZM625.691 70.6786C630.308 63.812 637.049 58.299 645.968 54.1599L645.126 52.3458C635.935 56.6111 628.885 62.3433 624.032 69.5628L625.691 70.6786ZM645.973 54.1577C654.857 49.9771 666.005 47.8608 679.46 47.8608V45.8608C665.809 45.8608 654.348 48.0059 645.121 52.348L645.973 54.1577ZM679.46 47.8608C689.149 47.8608 697.81 49.0059 705.453 51.2816L706.024 49.3647C698.161 47.0239 689.303 45.8608 679.46 45.8608V47.8608ZM705.46 51.2836C713.119 53.5051 719.604 56.6232 724.936 60.6224L726.136 59.0224C720.579 54.8541 713.865 51.6393 706.017 49.3627L705.46 51.2836ZM724.942 60.6266C730.278 64.5704 734.315 69.1924 737.079 74.4895L738.852 73.5644C735.934 67.9715 731.685 63.1237 726.131 59.0183L724.942 60.6266ZM737.085 74.5011C739.904 79.736 741.315 85.4317 741.315 91.6051H743.315C743.315 85.1128 741.827 79.0897 738.846 73.5529L737.085 74.5011ZM741.315 91.6051V185H743.315V91.6051H741.315ZM742.315 184H696.506V186H742.315V184ZM697.506 185V165.824H695.506V185H697.506ZM696.506 164.824H695.44V166.824H696.506V164.824ZM694.559 165.352C691.89 170.341 688.657 174.344 684.871 177.384L686.123 178.944C690.15 175.711 693.546 171.486 696.322 166.296L694.559 165.352ZM684.865 177.389C681.128 180.437 676.841 182.654 671.995 184.038L672.544 185.962C677.641 184.505 682.173 182.165 686.129 178.939L684.865 177.389ZM671.992 184.039C667.182 185.43 661.862 186.131 656.023 186.131V188.131C662.021 188.131 667.531 187.411 672.547 185.961L671.992 184.039ZM672.003 157.236C675.874 157.236 679.513 156.436 682.906 154.832L682.051 153.023C678.935 154.497 675.589 155.236 672.003 155.236V157.236ZM682.9 154.835C686.367 153.225 689.197 150.895 691.371 147.85L689.744 146.688C687.776 149.444 685.219 151.553 682.058 153.021L682.9 154.835ZM691.371 147.85C693.583 144.754 694.665 141.021 694.665 136.705H692.665C692.665 140.674 691.675 143.984 689.744 146.688L691.371 147.85ZM694.665 136.705V125.341H692.665V136.705H694.665ZM693.286 124.415C692.011 124.937 690.645 125.431 689.188 125.898L689.797 127.803C691.299 127.322 692.715 126.81 694.044 126.266L693.286 124.415ZM689.176 125.901C687.783 126.366 686.269 126.803 684.633 127.212L685.118 129.152C686.797 128.732 688.361 128.281 689.809 127.799L689.176 125.901ZM684.625 127.214C683.049 127.622 681.354 128.003 679.537 128.354L679.917 130.318C681.769 129.959 683.506 129.57 685.127 129.15L684.625 127.214ZM679.531 128.355C677.772 128.707 675.923 129.03 673.984 129.324L674.283 131.301C676.251 131.003 678.131 130.675 679.923 130.317L679.531 128.355ZM673.979 129.324C670.115 129.928 666.884 130.933 664.323 132.37L665.301 134.114C667.593 132.829 670.576 131.88 674.288 131.301L673.979 129.324ZM664.33 132.366C661.837 133.737 659.92 135.478 658.63 137.607L660.34 138.643C661.418 136.866 663.052 135.352 665.294 134.118L664.33 132.366ZM658.625 137.614C657.402 139.674 656.798 141.984 656.798 144.517H658.798C658.798 142.315 659.319 140.363 660.345 138.636L658.625 137.614ZM656.798 144.517C656.798 148.57 658.241 151.787 661.191 154.015L662.396 152.419C660.019 150.623 658.798 148.04 658.798 144.517H656.798ZM661.191 154.015C664.066 156.188 667.696 157.236 672.003 157.236V155.236C668.024 155.236 664.848 154.272 662.396 152.419L661.191 154.015ZM794.68 178.697L794.19 179.569L794.194 179.571L794.68 178.697ZM770.443 154.016L769.56 154.485L769.561 154.487L770.443 154.016ZM770.443 80.419L771.325 80.8899L771.326 80.8878L770.443 80.419ZM794.68 55.7386L795.166 56.6126L795.169 56.6105L794.68 55.7386ZM867.389 54.1406L866.944 55.0362L866.951 55.0393L867.389 54.1406ZM890.205 74.5597L889.352 75.0809L889.353 75.0834L890.205 74.5597ZM898.373 105.455V106.455H899.378L899.373 105.45L898.373 105.455ZM852.918 105.455L851.922 105.545L852.005 106.455H852.918V105.455ZM846.704 89.1193L845.963 89.7908L845.968 89.7969L845.974 89.8029L846.704 89.1193ZM822.201 87.1662L822.806 87.9627L822.815 87.9555L822.201 87.1662ZM814.744 98.2635L815.684 98.6034L815.685 98.5998L814.744 98.2635ZM814.744 135.462L813.802 135.798L813.803 135.802L814.744 135.462ZM822.201 146.559L821.587 147.348L821.596 147.355L822.201 146.559ZM842.975 147.713L843.487 148.572L843.494 148.568L843.5 148.564L842.975 147.713ZM849.722 140.256L848.841 139.783L848.838 139.789L849.722 140.256ZM852.918 128.182V127.182H851.99L851.921 128.107L852.918 128.182ZM898.373 128.182L899.373 128.197L899.388 127.182H898.373V128.182ZM890.116 159.609L890.974 160.124L890.975 160.121L890.116 159.609ZM867.478 180.206L867.033 179.31L867.031 179.312L867.478 180.206ZM832.677 186.486C818.012 186.486 805.522 183.583 795.166 177.823L794.194 179.571C804.907 185.53 817.749 188.486 832.677 188.486V186.486ZM795.169 177.825C784.799 171.999 776.857 163.91 771.325 153.545L769.561 154.487C775.274 165.193 783.49 173.558 794.19 179.569L795.169 177.825ZM771.326 153.548C765.792 143.12 763.009 131.005 763.009 117.173H761.009C761.009 131.278 763.849 143.724 769.56 154.485L771.326 153.548ZM763.009 117.173C763.009 103.342 765.792 91.2572 771.325 80.8899L769.561 79.9482C763.849 90.6509 761.009 103.069 761.009 117.173H763.009ZM771.326 80.8878C776.858 70.4651 784.798 62.3786 795.166 56.6125L794.194 54.8647C783.491 60.8174 775.273 69.1845 769.56 79.9502L771.326 80.8878ZM795.169 56.6105C805.525 50.7929 818.014 47.8608 832.677 47.8608V45.8608C817.747 45.8608 804.905 48.8473 794.19 54.8668L795.169 56.6105ZM832.677 47.8608C845.933 47.8608 857.345 50.2655 866.944 55.0361L867.834 53.2451C857.902 48.3093 846.173 45.8608 832.677 45.8608V47.8608ZM866.951 55.0393C876.614 59.7548 884.071 66.4347 889.352 75.0809L891.059 74.0384C885.567 65.0473 877.814 58.1145 867.828 53.2419L866.951 55.0393ZM889.353 75.0834C894.629 83.6644 897.314 93.7774 897.373 105.46L899.373 105.45C899.313 93.4574 896.553 82.9738 891.057 74.0359L889.353 75.0834ZM898.373 104.455H852.918V106.455H898.373V104.455ZM853.914 105.364C853.251 98.0692 851.129 92.3817 847.434 88.4358L845.974 89.8029C849.262 93.3143 851.283 98.517 851.922 105.545L853.914 105.364ZM847.445 88.4478C843.809 84.4359 839.094 82.4375 833.387 82.4375V84.4375C838.57 84.4375 842.733 86.227 845.963 89.7908L847.445 88.4478ZM833.387 82.4375C828.916 82.4375 824.968 83.747 821.587 86.3768L822.815 87.9555C825.826 85.6138 829.335 84.4375 833.387 84.4375V82.4375ZM821.596 86.3697C818.204 88.9455 815.622 92.8294 813.802 97.9272L815.685 98.5998C817.416 93.7544 819.806 90.2401 822.806 87.9626L821.596 86.3697ZM813.803 97.9236C811.975 102.981 811.08 109.29 811.08 116.818H813.08C813.08 109.431 813.961 103.371 815.684 98.6034L813.803 97.9236ZM811.08 116.818C811.08 124.347 811.975 130.684 813.802 135.798L815.685 135.125C813.961 130.296 813.08 124.204 813.08 116.818H811.08ZM813.803 135.802C815.625 140.841 818.204 144.717 821.587 147.348L822.815 145.77C819.805 143.429 817.414 139.907 815.684 135.122L813.803 135.802ZM821.596 147.355C824.977 149.923 828.922 151.199 833.387 151.199V149.199C829.33 149.199 825.817 148.049 822.806 145.762L821.596 147.355ZM833.387 151.199C837.156 151.199 840.533 150.332 843.487 148.572L842.463 146.854C839.854 148.409 836.838 149.199 833.387 149.199V151.199ZM843.5 148.564C846.452 146.743 848.818 144.115 850.607 140.722L848.838 139.789C847.194 142.907 845.061 145.251 842.45 146.862L843.5 148.564ZM850.604 140.728C852.46 137.263 853.553 133.095 853.915 128.257L851.921 128.107C851.574 132.738 850.536 136.62 848.841 139.783L850.604 140.728ZM852.918 129.182H898.373V127.182H852.918V129.182ZM897.373 128.167C897.198 140.034 894.481 150.333 889.257 159.097L890.975 160.121C896.405 151.012 899.193 140.359 899.373 128.197L897.373 128.167ZM889.259 159.095C884.036 167.8 876.637 174.537 867.033 179.31L867.923 181.101C877.85 176.168 885.544 169.174 890.974 160.124L889.259 159.095ZM867.031 179.312C857.493 184.08 846.053 186.486 832.677 186.486V188.486C846.289 188.486 858.05 186.038 867.925 181.1L867.031 179.312ZM1001.16 48.6364H1002.16V47.6364H1001.16V48.6364ZM1001.16 84.1477V85.1477H1002.16V84.1477H1001.16ZM911.319 84.1477H910.319V85.1477H911.319V84.1477ZM911.319 48.6364V47.6364H910.319V48.6364H911.319ZM928.72 15.9659V14.9659H927.72V15.9659H928.72ZM977.726 15.9659H978.726V14.9659H977.726V15.9659ZM978.702 145.938L977.808 146.385L977.812 146.393L977.816 146.402L978.702 145.938ZM981.721 148.778L981.289 149.681L981.305 149.688L981.322 149.695L981.721 148.778ZM992.108 149.134L991.934 148.149L991.929 148.15L992.108 149.134ZM996.547 148.246L997.526 148.044L997.315 147.023L996.304 147.276L996.547 148.246ZM1003.65 182.692L1003.93 183.65L1004.81 183.389L1004.63 182.49L1003.65 182.692ZM994.238 185.089L994.013 184.115L994.009 184.115L994.238 185.089ZM979.856 186.953L979.909 187.952L979.909 187.952L979.856 186.953ZM951.536 183.491L951.175 184.423L951.181 184.426L951.536 183.491ZM934.313 169.553L933.458 170.072L934.313 169.553ZM928.72 145.76L929.72 145.772V145.76H928.72ZM1000.16 48.6364V84.1477H1002.16V48.6364H1000.16ZM1001.16 83.1477H911.319V85.1477H1001.16V83.1477ZM912.319 84.1477V48.6364H910.319V84.1477H912.319ZM911.319 49.6364H1001.16V47.6364H911.319V49.6364ZM928.72 16.9659H977.726V14.9659H928.72V16.9659ZM976.726 15.9659V141.143H978.726V15.9659H976.726ZM976.726 141.143C976.726 143.148 977.07 144.908 977.808 146.385L979.597 145.49C979.033 144.362 978.726 142.927 978.726 141.143H976.726ZM977.816 146.402C978.575 147.85 979.749 148.944 981.289 149.681L982.152 147.876C980.97 147.311 980.131 146.51 979.588 145.473L977.816 146.402ZM981.322 149.695C982.851 150.36 984.746 150.666 986.959 150.666V148.666C984.91 148.666 983.313 148.38 982.119 147.861L981.322 149.695ZM986.959 150.666C988.515 150.666 990.293 150.48 992.287 150.117L991.929 148.15C990.016 148.497 988.362 148.666 986.959 148.666V150.666ZM992.281 150.118C994.298 149.763 995.806 149.462 996.789 149.216L996.304 147.276C995.393 147.503 993.942 147.794 991.934 148.149L992.281 150.118ZM995.567 148.448L1002.67 182.894L1004.63 182.49L997.526 148.044L995.567 148.448ZM1003.36 181.733C1001.2 182.376 998.09 183.169 994.013 184.115L994.464 186.063C998.555 185.114 1001.71 184.31 1003.93 183.65L1003.36 181.733ZM994.009 184.115C990.058 185.045 985.326 185.661 979.803 185.955L979.909 187.952C985.513 187.654 990.369 187.027 994.467 186.062L994.009 184.115ZM979.804 185.955C968.648 186.542 959.357 185.392 951.891 182.556L951.181 184.426C958.985 187.39 968.574 188.548 979.909 187.952L979.804 185.955ZM951.897 182.558C944.445 179.67 938.888 175.158 935.168 169.033L933.458 170.072C937.432 176.613 943.357 181.393 951.175 184.423L951.897 182.558ZM935.168 169.033C931.442 162.9 929.603 155.167 929.72 145.772L927.72 145.748C927.6 155.411 929.49 163.539 933.458 170.072L935.168 169.033ZM929.72 145.76V15.9659H927.72V145.76H929.72Z" fill="#54FF04" fill-opacity="0.32"/>
</svg>
