<svg width="51" height="46" viewBox="0 0 51 46" fill="none" xmlns="http://www.w3.org/2000/svg">
<line y1="-0.5" x2="3.93712" y2="-0.5" transform="matrix(0.719244 0.694757 -0.682699 0.7307 11.6902 11.7509)" stroke="white"/>
<line y1="-0.5" x2="3.97147" y2="-0.5" transform="matrix(-0.00410799 0.999991 -0.999991 -0.00424714 24.7324 7)" stroke="white"/>
<line y1="-0.5" x2="3.83655" y2="-0.5" transform="matrix(-0.701194 0.71297 -0.701194 -0.71297 37.8838 11.319)" stroke="white"/>
<line x1="41" y1="24.416" x2="36.8915" y2="24.416" stroke="white"/>
<line x1="24.2915" y1="22.6164" x2="21.1766" y2="22.6164" stroke="white"/>
<line y1="-0.5" x2="5.80972" y2="-0.5" transform="matrix(-0.60927 0.792963 -0.783014 -0.622004 24.8579 17.5095)" stroke="white"/>
<line y1="-0.5" x2="5.92453" y2="-0.5" transform="matrix(-0.597463 -0.801896 0.792215 -0.610242 28.6807 22.2603)" stroke="white"/>
<line x1="25.9153" y1="33.6336" x2="25.9153" y2="22.8362" stroke="white"/>
<line x1="23.7915" y1="26.4354" x2="23.7915" y2="22.6923" stroke="white"/>
<line x1="23.7915" y1="29.0267" x2="23.7915" y2="27.875" stroke="white"/>
<line x1="23.7915" y1="31.906" x2="23.7915" y2="30.7543" stroke="white"/>
<line x1="28.8223" y1="22.6164" x2="25.7073" y2="22.6164" stroke="white"/>
<line x1="13.1084" y1="24.488" x2="8.99992" y2="24.488" stroke="white"/>
<line x1="29.8135" y1="36.0052" x2="20.3271" y2="36.0052" stroke="white"/>
<path d="M21.035 33.3457L21.0057 32.5409C20.9783 31.7904 20.7925 31.0531 20.4607 30.3783V30.3783C20.2313 29.9117 19.9351 29.4813 19.5818 29.1009L18.9112 28.3789L18.029 27.2683C17.6283 26.7639 17.3045 26.2022 17.0684 25.6021V25.6021C16.8351 25.0092 16.6901 24.3853 16.6381 23.751L16.5765 22.999C16.5284 22.4121 16.5394 21.8223 16.6094 21.2387L16.6299 21.0685C16.7799 19.8174 17.2221 18.6224 17.9201 17.5815V17.5815L18.7373 16.5131C19.181 15.9331 19.7105 15.4256 20.3076 15.0082V15.0082C21.2053 14.3807 22.2356 13.9708 23.3191 13.8101L23.7286 13.7494C24.6179 13.6175 25.523 13.6221 26.4133 13.7629L26.7425 13.8149C27.7427 13.9731 28.7063 14.318 29.584 14.8318V14.8318C30.2527 15.2233 30.8636 15.7082 31.3983 16.2721L31.8037 16.6996C32.2684 17.1896 32.6711 17.7358 33.0024 18.3254L33.017 18.3513C33.4272 19.0812 33.7208 19.871 33.8869 20.6914V20.6914C34.0491 21.4926 34.0878 22.3133 34.0016 23.1243L33.9542 23.5697C33.8841 24.2293 33.7238 24.8751 33.4778 25.4889V25.4889C33.2074 26.1639 32.8364 26.7927 32.3775 27.3536L30.8322 29.2427L30.4956 29.7722C29.8189 30.8367 29.4594 32.0765 29.4594 33.3457V33.3457" stroke="white"/>
<line x1="28.2559" y1="38.7405" x2="22.1676" y2="38.7405" stroke="white"/>
<rect x="1" y="1" width="49" height="44" stroke="white" stroke-width="2"/>
</svg>
