<svg width="918" height="250" viewBox="0 0 918 250" fill="none" xmlns="http://www.w3.org/2000/svg">
<path d="M70.8666 196H0.90918V14.1818H70.1563C88.859 14.1818 105.017 17.8217 118.629 25.1016C132.301 32.3222 142.836 42.7389 150.234 56.3516C157.692 69.9051 161.421 86.1515 161.421 105.091C161.421 124.03 157.721 140.306 150.323 153.919C142.925 167.473 132.449 177.889 118.896 185.169C105.342 192.39 89.3325 196 70.8666 196ZM50.27 154.097H69.091C78.0872 154.097 85.7517 152.647 92.0846 149.746C98.4767 146.846 103.33 141.845 106.644 134.743C110.018 127.641 111.705 117.757 111.705 105.091C111.705 92.4252 109.988 82.5412 106.555 75.4389C103.182 68.3366 98.2103 63.3355 91.6407 60.4354C85.1303 57.5353 77.1402 56.0852 67.6705 56.0852H50.27V154.097ZM251.56 198.486C237 198.486 224.453 195.704 213.918 190.141C203.442 184.518 195.363 176.469 189.681 165.993C184.059 155.458 181.247 142.851 181.247 128.173C181.247 114.087 184.088 101.777 189.77 91.2415C195.452 80.7064 203.472 72.5092 213.829 66.6499C224.187 60.7905 236.408 57.8608 250.495 57.8608C260.793 57.8608 270.115 59.4588 278.46 62.6548C286.805 65.8508 293.937 70.4969 299.855 76.593C305.774 82.63 310.331 89.969 313.527 98.6101C316.723 107.251 318.321 116.987 318.321 127.818V139.182H196.517V112.193H273.222C273.163 108.287 272.157 104.854 270.203 101.895C268.309 98.8764 265.735 96.5386 262.48 94.8814C259.284 93.165 255.644 92.3068 251.56 92.3068C247.594 92.3068 243.955 93.165 240.64 94.8814C237.326 96.5386 234.662 98.8468 232.65 101.806C230.697 104.765 229.661 108.228 229.543 112.193V141.312C229.543 145.692 230.46 149.598 232.295 153.031C234.13 156.464 236.764 159.157 240.196 161.11C243.629 163.063 247.772 164.04 252.625 164.04C255.999 164.04 259.077 163.566 261.858 162.619C264.699 161.672 267.126 160.311 269.138 158.536C271.15 156.701 272.63 154.511 273.577 151.966H318.321C316.782 161.436 313.143 169.662 307.402 176.646C301.661 183.571 294.055 188.957 284.585 192.804C275.175 196.592 264.166 198.486 251.56 198.486ZM464.214 104.026H419.114C418.877 101.244 417.901 98.8468 416.184 96.8345C414.468 94.8222 412.249 93.2834 409.526 92.218C406.863 91.0935 403.903 90.5312 400.648 90.5312C396.446 90.5312 392.836 91.3007 389.817 92.8395C386.799 94.3783 385.319 96.5682 385.378 99.4091C385.319 101.421 386.177 103.286 387.953 105.002C389.788 106.719 393.309 108.05 398.517 108.997L426.216 113.969C440.184 116.514 450.571 120.805 457.378 126.842C464.243 132.819 467.705 140.839 467.765 150.901C467.705 160.607 464.805 169.041 459.064 176.202C453.383 183.305 445.6 188.809 435.716 192.715C425.891 196.562 414.675 198.486 402.069 198.486C381.235 198.486 364.93 194.224 353.152 185.702C341.433 177.179 334.893 165.934 333.532 151.966H382.182C382.833 156.286 384.964 159.63 388.574 161.998C392.244 164.306 396.86 165.46 402.424 165.46C406.922 165.46 410.621 164.691 413.521 163.152C416.48 161.613 417.99 159.423 418.049 156.582C417.99 153.978 416.687 151.907 414.142 150.368C411.657 148.829 407.75 147.586 402.424 146.639L378.276 142.378C364.367 139.951 353.951 135.335 347.026 128.528C340.101 121.722 336.669 112.963 336.728 102.25C336.669 92.7803 339.154 84.7607 344.185 78.191C349.275 71.5623 356.525 66.5315 365.936 63.0987C375.406 59.6068 386.621 57.8608 399.583 57.8608C419.292 57.8608 434.828 61.9446 446.191 70.1122C457.614 78.2798 463.622 89.5843 464.214 104.026ZM487.791 196V59.6364H536.797V196H487.791ZM512.294 45.4318C505.665 45.4318 499.984 43.2419 495.249 38.8622C490.514 34.4825 488.146 29.215 488.146 23.0597C488.146 16.9044 490.514 11.6368 495.249 7.25709C499.984 2.87736 505.665 0.6875 512.294 0.6875C518.982 0.6875 524.664 2.87736 529.34 7.25709C534.074 11.6368 536.442 16.9044 536.442 23.0597C536.442 29.215 534.074 34.4825 529.34 38.8622C524.664 43.2419 518.982 45.4318 512.294 45.4318ZM628.712 249.977C615.04 249.977 603.321 248.024 593.556 244.118C583.849 240.271 576.303 234.944 570.917 228.138C565.59 221.391 562.602 213.637 561.951 204.878H609.181C609.654 207.778 610.838 210.116 612.732 211.891C614.626 213.667 617.052 214.939 620.012 215.709C623.03 216.537 626.404 216.952 630.132 216.952C636.465 216.952 641.703 215.413 645.846 212.335C650.048 209.258 652.149 203.694 652.149 195.645V172.562H650.729C648.953 177.179 646.231 181.115 642.561 184.37C638.892 187.566 634.483 190.022 629.333 191.739C624.184 193.396 618.532 194.224 612.377 194.224C602.67 194.224 593.733 191.975 585.566 187.477C577.457 182.979 570.947 175.847 566.034 166.082C561.181 156.316 558.755 143.562 558.755 127.818C558.755 111.365 561.3 97.9886 566.389 87.6903C571.539 77.392 578.167 69.8459 586.276 65.0518C594.443 60.2578 603.025 57.8608 612.022 57.8608C618.769 57.8608 624.687 59.0445 629.777 61.4119C634.867 63.7202 639.129 66.8274 642.561 70.7337C645.994 74.5807 648.598 78.8125 650.374 83.429H651.439V59.6364H700.445V195.645C700.445 207.186 697.456 216.981 691.478 225.031C685.56 233.139 677.215 239.324 666.443 243.585C655.671 247.847 643.094 249.977 628.712 249.977ZM630.487 159.423C634.986 159.423 638.833 158.18 642.029 155.695C645.284 153.15 647.77 149.539 649.486 144.864C651.262 140.129 652.149 134.447 652.149 127.818C652.149 121.071 651.262 115.3 649.486 110.506C647.77 105.653 645.284 101.954 642.029 99.4091C638.833 96.8049 634.986 95.5028 630.487 95.5028C625.989 95.5028 622.142 96.8049 618.946 99.4091C615.809 101.954 613.383 105.653 611.666 110.506C610.009 115.3 609.181 121.071 609.181 127.818C609.181 134.565 610.009 140.306 611.666 145.041C613.383 149.717 615.809 153.298 618.946 155.783C622.142 158.21 625.989 159.423 630.487 159.423ZM775.625 119.295V196H726.619V59.6364H773.139V85.5597H774.56C777.519 76.9186 782.727 70.1418 790.185 65.2294C797.701 60.317 806.461 57.8608 816.463 57.8608C826.11 57.8608 834.485 60.0803 841.587 64.5192C848.749 68.8989 854.283 74.9358 858.189 82.63C862.154 90.3241 864.108 99.1132 864.048 108.997V196H815.043V119.295C815.102 112.548 813.386 107.251 809.894 103.404C806.461 99.5571 801.667 97.6335 795.511 97.6335C791.487 97.6335 787.965 98.5213 784.947 100.297C781.988 102.013 779.709 104.499 778.111 107.754C776.513 110.95 775.684 114.797 775.625 119.295ZM954.831 198.486C940.272 198.486 927.724 195.704 917.189 190.141C906.714 184.518 898.635 176.469 892.953 165.993C887.33 155.458 884.519 142.851 884.519 128.173C884.519 114.087 887.36 101.777 893.042 91.2415C898.723 80.7064 906.743 72.5092 917.101 66.6499C927.458 60.7905 939.68 57.8608 953.766 57.8608C964.064 57.8608 973.386 59.4588 981.731 62.6548C990.076 65.8508 997.208 70.4969 1003.13 76.593C1009.05 82.63 1013.6 89.969 1016.8 98.6101C1019.99 107.251 1021.59 116.987 1021.59 127.818V139.182H899.789V112.193H976.493C976.434 108.287 975.428 104.854 973.475 101.895C971.581 98.8764 969.006 96.5386 965.751 94.8814C962.555 93.165 958.915 92.3068 954.831 92.3068C950.866 92.3068 947.226 93.165 943.912 94.8814C940.597 96.5386 937.934 98.8468 935.922 101.806C933.968 104.765 932.933 108.228 932.814 112.193V141.312C932.814 145.692 933.732 149.598 935.566 153.031C937.401 156.464 940.035 159.157 943.468 161.11C946.901 163.063 951.044 164.04 955.897 164.04C959.27 164.04 962.348 163.566 965.13 162.619C967.971 161.672 970.397 160.311 972.41 158.536C974.422 156.701 975.901 154.511 976.848 151.966H1021.59C1020.05 161.436 1016.41 169.662 1010.67 176.646C1004.93 183.571 997.327 188.957 987.857 192.804C978.446 196.592 967.438 198.486 954.831 198.486ZM1042.84 196V59.6364H1090.43V85.5597H1091.85C1094.33 75.9716 1098.27 68.9581 1103.65 64.5192C1109.1 60.0803 1115.46 57.8608 1122.74 57.8608C1124.87 57.8608 1126.97 58.0384 1129.04 58.3935C1131.17 58.6894 1133.22 59.1333 1135.17 59.7251V101.54C1132.74 100.711 1129.75 100.09 1126.2 99.6754C1122.65 99.2611 1119.6 99.054 1117.06 99.054C1112.26 99.054 1107.94 100.149 1104.1 102.339C1100.31 104.469 1097.32 107.488 1095.13 111.394C1092.94 115.241 1091.85 119.769 1091.85 124.977V196H1042.84Z" fill="#454544" fill-opacity="0.09"/>
<path d="M0.90918 196H-0.0908203V197H0.90918V196ZM0.90918 14.1818V13.1818H-0.0908203V14.1818H0.90918ZM118.629 25.1016L118.158 25.9834L118.162 25.9858L118.629 25.1016ZM150.234 56.3516L149.356 56.8291L149.358 56.8336L150.234 56.3516ZM150.323 153.919L151.201 154.398L151.202 154.397L150.323 153.919ZM118.896 185.169L119.366 186.052L119.369 186.05L118.896 185.169ZM50.27 154.097H49.27V155.097H50.27V154.097ZM92.0846 149.746L91.6714 148.836L91.6682 148.837L92.0846 149.746ZM106.644 134.743L105.741 134.314L105.738 134.32L106.644 134.743ZM106.555 75.4389L105.652 75.868L105.655 75.8741L106.555 75.4389ZM91.6407 60.4354L91.2338 61.3488L91.2369 61.3502L91.6407 60.4354ZM50.27 56.0852V55.0852H49.27V56.0852H50.27ZM70.8666 195H0.90918V197H70.8666V195ZM1.90918 196V14.1818H-0.0908203V196H1.90918ZM0.90918 15.1818H70.1563V13.1818H0.90918V15.1818ZM70.1563 15.1818C88.729 15.1818 104.718 18.7959 118.158 25.9834L119.101 24.2197C105.316 16.8475 88.989 13.1818 70.1563 13.1818V15.1818ZM118.162 25.9858C131.66 33.1142 142.052 43.3892 149.356 56.8291L151.113 55.874C143.621 42.0885 132.943 31.5302 119.096 24.2173L118.162 25.9858ZM149.358 56.8336C156.718 70.2098 160.421 86.2826 160.421 105.091H162.421C162.421 86.0204 158.666 69.6003 151.111 55.8695L149.358 56.8336ZM160.421 105.091C160.421 123.9 156.747 140.005 149.445 153.442L151.202 154.397C158.696 140.608 162.421 124.16 162.421 105.091H160.421ZM149.445 153.44C142.14 166.824 131.804 177.1 118.423 184.288L119.369 186.05C133.094 178.678 143.71 168.121 151.201 154.398L149.445 153.44ZM118.426 184.286C105.043 191.416 89.2015 195 70.8666 195V197C89.4635 197 105.641 193.363 119.366 186.052L118.426 184.286ZM50.27 155.097H69.091V153.097H50.27V155.097ZM69.091 155.097C78.1907 155.097 86.0052 153.63 92.501 150.656L91.6682 148.837C85.4983 151.663 77.9838 153.097 69.091 153.097V155.097ZM92.4978 150.657C99.1327 147.647 104.148 142.457 107.55 135.166L105.738 134.32C102.512 141.233 97.8206 146.046 91.6714 148.836L92.4978 150.657ZM107.548 135.172C111.012 127.878 112.705 117.825 112.705 105.091H110.705C110.705 117.689 109.024 127.403 105.741 134.314L107.548 135.172ZM112.705 105.091C112.705 92.3556 110.982 82.2996 107.456 75.0037L105.655 75.8741C108.994 82.7828 110.705 92.4948 110.705 105.091H112.705ZM107.459 75.0099C103.993 67.7131 98.8549 62.5269 92.0446 59.5205L91.2369 61.3502C97.5657 64.144 102.371 68.9601 105.652 75.868L107.459 75.0099ZM92.0476 59.5219C85.3744 56.5493 77.2367 55.0852 67.6705 55.0852V57.0852C77.0438 57.0852 84.8862 58.5212 91.2338 61.3488L92.0476 59.5219ZM67.6705 55.0852H50.27V57.0852H67.6705V55.0852ZM49.27 56.0852V154.097H51.27V56.0852H49.27ZM213.918 190.141L213.445 191.022L213.451 191.025L213.918 190.141ZM189.681 165.993L188.799 166.464L188.802 166.47L189.681 165.993ZM189.77 91.2415L190.65 91.7162L189.77 91.2415ZM213.829 66.6499L214.321 67.5202V67.5202L213.829 66.6499ZM278.46 62.6548L278.817 61.721L278.46 62.6548ZM299.855 76.593L299.138 77.2896L299.141 77.2931L299.855 76.593ZM313.527 98.6101L312.589 98.957L313.527 98.6101ZM318.321 139.182V140.182H319.321V139.182H318.321ZM196.517 139.182H195.517V140.182H196.517V139.182ZM196.517 112.193V111.193H195.517V112.193H196.517ZM273.222 112.193V113.193H274.237L274.222 112.178L273.222 112.193ZM270.203 101.895L269.356 102.426L269.362 102.436L269.369 102.446L270.203 101.895ZM262.48 94.8814L262.007 95.7624L262.016 95.7676L262.026 95.7726L262.48 94.8814ZM240.64 94.8814L241.087 95.7758L241.094 95.7726L241.1 95.7694L240.64 94.8814ZM232.65 101.806L231.823 101.244L231.816 101.255L232.65 101.806ZM229.543 112.193L228.543 112.163L228.543 112.178V112.193H229.543ZM232.295 153.031L231.413 153.503L232.295 153.031ZM240.196 161.11L239.702 161.979L240.196 161.11ZM261.858 162.619L261.542 161.671L261.536 161.673L261.858 162.619ZM269.138 158.536L269.8 159.285L269.806 159.28L269.812 159.274L269.138 158.536ZM273.577 151.966V150.966H272.882L272.64 151.617L273.577 151.966ZM318.321 151.966L319.308 152.126L319.497 150.966H318.321V151.966ZM307.402 176.646L308.171 177.285L308.174 177.281L307.402 176.646ZM284.586 192.804L284.959 193.732L284.962 193.73L284.586 192.804ZM251.56 197.486C237.127 197.486 224.747 194.729 214.385 189.256L213.451 191.025C224.158 196.679 236.873 199.486 251.56 199.486V197.486ZM214.391 189.26C204.087 183.729 196.149 175.821 190.56 165.516L188.802 166.47C194.577 177.117 202.797 185.307 213.445 191.022L214.391 189.26ZM190.564 165.522C185.034 155.161 182.247 142.724 182.247 128.173H180.247C180.247 142.978 183.083 155.754 188.799 166.464L190.564 165.522ZM182.247 128.173C182.247 114.223 185.06 102.082 190.65 91.7162L188.89 90.7668C183.117 101.471 180.247 113.951 180.247 128.173H182.247ZM190.65 91.7162C196.243 81.3459 204.129 73.2863 214.321 67.5202L213.337 65.7795C202.814 71.7322 194.661 80.067 188.89 90.7668L190.65 91.7162ZM214.321 67.5202C224.503 61.7602 236.549 58.8608 250.495 58.8608V56.8608C236.268 56.8608 223.87 59.8207 213.337 65.7795L214.321 67.5202ZM250.495 58.8608C260.689 58.8608 269.887 60.4425 278.102 63.5887L278.817 61.721C270.342 58.4751 260.897 56.8608 250.495 56.8608V58.8608ZM278.102 63.5887C286.319 66.7355 293.326 71.3032 299.138 77.2896L300.573 75.8965C294.548 69.6906 287.291 64.9662 278.817 61.721L278.102 63.5887ZM299.141 77.2931C304.953 83.2207 309.438 90.4361 312.589 98.957L314.465 98.2632C311.225 89.5019 306.595 82.0393 300.569 75.893L299.141 77.2931ZM312.589 98.957C315.738 107.469 317.321 117.085 317.321 127.818H319.321C319.321 116.889 317.709 107.033 314.465 98.2632L312.589 98.957ZM317.321 127.818V139.182H319.321V127.818H317.321ZM318.321 138.182H196.517V140.182H318.321V138.182ZM197.517 139.182V112.193H195.517V139.182H197.517ZM196.517 113.193H273.222V111.193H196.517V113.193ZM274.222 112.178C274.16 108.101 273.107 104.478 271.038 101.344L269.369 102.446C271.206 105.23 272.165 108.473 272.222 112.208L274.222 112.178ZM271.05 101.363C269.058 98.1877 266.346 95.7274 262.933 93.9902L262.026 95.7726C265.124 97.3498 267.561 99.5652 269.356 102.426L271.05 101.363ZM262.953 94.0004C259.594 92.1965 255.788 91.3068 251.56 91.3068V93.3068C255.5 93.3068 258.973 94.1335 262.007 95.7624L262.953 94.0004ZM251.56 91.3068C247.445 91.3068 243.646 92.1988 240.18 93.9934L241.1 95.7694C244.263 94.1312 247.744 93.3068 251.56 93.3068V91.3068ZM240.193 93.987C236.731 95.7178 233.935 98.138 231.823 101.244L233.477 102.368C235.39 99.5556 237.92 97.3594 241.087 95.7758L240.193 93.987ZM231.816 101.255C229.748 104.387 228.667 108.035 228.543 112.163L230.542 112.223C230.656 108.421 231.646 105.143 233.485 102.357L231.816 101.255ZM228.543 112.193V141.312H230.543V112.193H228.543ZM228.543 141.312C228.543 145.836 229.492 149.907 231.413 153.503L233.177 152.56C231.429 149.289 230.543 145.549 230.543 141.312H228.543ZM231.413 153.503C233.338 157.104 236.107 159.934 239.702 161.979L240.691 160.241C237.42 158.38 234.921 155.824 233.177 152.56L231.413 153.503ZM239.702 161.979C243.316 164.036 247.638 165.04 252.625 165.04V163.04C247.906 163.04 243.942 162.091 240.691 160.241L239.702 161.979ZM252.625 165.04C256.093 165.04 259.281 164.553 262.18 163.566L261.536 161.673C258.872 162.58 255.905 163.04 252.625 163.04V165.04ZM262.174 163.568C265.128 162.584 267.676 161.159 269.8 159.285L268.476 157.786C266.576 159.463 264.27 160.761 261.542 161.671L262.174 163.568ZM269.812 159.274C271.941 157.333 273.512 155.009 274.514 152.315L272.64 151.617C271.748 154.013 270.359 156.069 268.464 157.797L269.812 159.274ZM273.577 152.966H318.321V150.966H273.577V152.966ZM317.334 151.806C315.822 161.112 312.251 169.172 306.629 176.011L308.174 177.281C314.034 170.153 317.743 161.759 319.308 152.126L317.334 151.806ZM306.632 176.008C301.01 182.789 293.547 188.084 284.209 191.878L284.962 193.73C294.563 189.83 302.311 184.353 308.171 177.285L306.632 176.008ZM284.212 191.876C274.945 195.606 264.069 197.486 251.56 197.486V199.486C264.264 199.486 275.405 197.577 284.959 193.732L284.212 191.876ZM464.214 104.026V105.026H465.255L465.213 103.985L464.214 104.026ZM419.114 104.026L418.118 104.11L418.196 105.026H419.114V104.026ZM416.184 96.8345L416.945 96.1856L416.184 96.8345ZM409.526 92.218L409.137 93.1393L409.149 93.1445L409.162 93.1493L409.526 92.218ZM389.817 92.8395L389.363 91.9486L389.817 92.8395ZM385.378 99.4091L386.378 99.4385L386.379 99.4134L386.378 99.3883L385.378 99.4091ZM387.953 105.002L387.258 105.721L387.264 105.727L387.27 105.732L387.953 105.002ZM398.517 108.997L398.339 109.981L398.341 109.981L398.517 108.997ZM426.216 113.969L426.396 112.985L426.393 112.984L426.216 113.969ZM457.378 126.842L456.714 127.59L456.721 127.596L457.378 126.842ZM467.765 150.901L468.765 150.907L468.765 150.895L467.765 150.901ZM459.064 176.202L458.284 175.577L458.284 175.578L459.064 176.202ZM435.716 192.715L436.08 193.646L436.083 193.645L435.716 192.715ZM353.152 185.702L352.564 186.51L352.565 186.512L353.152 185.702ZM333.532 151.966V150.966H332.43L332.536 152.063L333.532 151.966ZM382.182 151.966L383.171 151.817L383.043 150.966H382.182V151.966ZM388.574 161.998L388.026 162.834L388.034 162.839L388.042 162.844L388.574 161.998ZM413.521 163.152L413.06 162.265L413.052 162.269L413.521 163.152ZM418.049 156.582L419.049 156.603L419.049 156.581L419.048 156.56L418.049 156.582ZM414.142 150.368L413.616 151.218L413.625 151.224L414.142 150.368ZM402.424 146.639L402.599 145.655L402.598 145.654L402.424 146.639ZM378.276 142.378L378.45 141.393L378.448 141.393L378.276 142.378ZM347.026 128.528L347.727 127.815L347.026 128.528ZM336.728 102.25L337.728 102.256L337.728 102.244L336.728 102.25ZM344.185 78.191L343.392 77.582L343.391 77.5831L344.185 78.191ZM365.936 63.0987L366.279 64.0382L366.282 64.037L365.936 63.0987ZM446.191 70.1122L445.608 70.9242L445.61 70.9257L446.191 70.1122ZM464.214 103.026H419.114V105.026H464.214V103.026ZM420.11 103.941C419.857 100.963 418.805 98.3658 416.945 96.1856L415.424 97.4835C416.997 99.3278 417.898 101.524 418.118 104.11L420.11 103.941ZM416.945 96.1856C415.111 94.0351 412.75 92.4057 409.89 91.2868L409.162 93.1493C411.747 94.1611 413.825 95.6093 415.424 97.4835L416.945 96.1856ZM409.915 91.2968C407.114 90.1141 404.02 89.5312 400.648 89.5312V91.5312C403.787 91.5312 406.611 92.0729 409.137 93.1393L409.915 91.2968ZM400.648 89.5312C396.325 89.5312 392.552 90.3229 389.363 91.9486L390.271 93.7304C393.119 92.2785 396.567 91.5312 400.648 91.5312V89.5312ZM389.363 91.9486C387.745 92.7737 386.473 93.8068 385.615 95.0761C384.751 96.3554 384.345 97.8192 384.379 99.4299L386.378 99.3883C386.352 98.158 386.657 97.1065 387.272 96.1959C387.894 95.2753 388.871 94.4441 390.271 93.7304L389.363 91.9486ZM384.379 99.3797C384.309 101.735 385.329 103.857 387.258 105.721L388.648 104.283C387.025 102.714 386.329 101.107 386.378 99.4385L384.379 99.3797ZM387.27 105.732C389.332 107.661 393.109 109.03 398.339 109.981L398.696 108.013C393.509 107.07 390.243 105.776 388.636 104.272L387.27 105.732ZM398.341 109.981L426.04 114.953L426.393 112.984L398.694 108.013L398.341 109.981ZM426.037 114.953C439.917 117.482 450.101 121.724 456.714 127.59L458.041 126.093C451.042 119.885 440.451 115.546 426.396 112.985L426.037 114.953ZM456.721 127.596C463.346 133.364 466.707 141.098 466.765 150.906L468.765 150.895C468.704 140.58 465.141 132.275 458.034 126.087L456.721 127.596ZM466.765 150.894C466.707 160.39 463.876 168.602 458.284 175.577L459.845 176.828C465.735 169.48 468.704 160.824 468.765 150.907L466.765 150.894ZM458.284 175.578C452.728 182.523 445.098 187.932 435.348 191.785L436.083 193.645C446.102 189.686 454.037 184.087 459.845 176.827L458.284 175.578ZM435.351 191.784C425.663 195.578 414.574 197.486 402.069 197.486V199.486C414.776 199.486 426.119 197.547 436.08 193.646L435.351 191.784ZM402.069 197.486C381.358 197.486 365.286 193.248 353.738 184.892L352.565 186.512C364.574 195.201 381.113 199.486 402.069 199.486V197.486ZM353.74 184.893C342.244 176.532 335.859 165.542 334.527 151.869L332.536 152.063C333.926 166.326 340.622 177.826 352.564 186.51L353.74 184.893ZM333.532 152.966H382.182V150.966H333.532V152.966ZM381.193 152.115C381.886 156.713 384.174 160.309 388.026 162.834L389.123 161.162C385.754 158.952 383.78 155.86 383.171 151.817L381.193 152.115ZM388.042 162.844C391.91 165.278 396.725 166.46 402.424 166.46V164.46C396.996 164.46 392.577 163.335 389.107 161.151L388.042 162.844ZM402.424 166.46C407.028 166.46 410.902 165.674 413.99 164.035L413.052 162.269C410.34 163.708 406.816 164.46 402.424 164.46V166.46ZM413.982 164.039C417.198 162.367 418.98 159.88 419.049 156.603L417.049 156.562C416.999 158.966 415.762 160.859 413.06 162.265L413.982 164.039ZM419.048 156.56C418.98 153.56 417.449 151.198 414.66 149.512L413.625 151.224C415.926 152.615 416.999 154.396 417.049 156.605L419.048 156.56ZM414.669 149.518C412.019 147.878 407.962 146.608 402.599 145.655L402.249 147.624C407.538 148.564 411.294 149.781 413.616 151.218L414.669 149.518ZM402.598 145.654L378.45 141.393L378.102 143.363L402.25 147.624L402.598 145.654ZM378.448 141.393C364.653 138.986 354.455 134.428 347.727 127.815L346.325 129.242C353.446 136.241 364.082 140.917 378.104 143.363L378.448 141.393ZM347.727 127.815C341.016 121.219 337.67 112.729 337.728 102.256L335.728 102.244C335.667 113.196 339.187 122.225 346.325 129.242L347.727 127.815ZM337.728 102.244C337.67 92.9624 340.102 85.1675 344.979 78.799L343.391 77.5831C338.206 84.3538 335.667 92.5982 335.728 102.256L337.728 102.244ZM344.978 78.8001C349.931 72.3496 357.011 67.4189 366.279 64.0382L365.593 62.1593C356.04 65.6441 348.619 70.7749 343.392 77.582L344.978 78.8001ZM366.282 64.037C375.614 60.5956 386.707 58.8608 399.583 58.8608V56.8608C386.535 56.8608 375.197 58.6179 365.59 62.1605L366.282 64.037ZM399.583 58.8608C419.165 58.8608 434.471 62.9197 445.608 70.9242L446.775 69.3002C435.185 60.9696 419.418 56.8608 399.583 56.8608V58.8608ZM445.61 70.9257C456.773 78.9079 462.635 89.9228 463.214 104.067L465.213 103.985C464.609 89.2457 458.455 77.6518 446.773 69.2988L445.61 70.9257ZM487.791 196H486.791V197H487.791V196ZM487.791 59.6364V58.6364H486.791V59.6364H487.791ZM536.797 59.6364H537.797V58.6364H536.797V59.6364ZM536.797 196V197H537.797V196H536.797ZM495.249 38.8622L494.57 39.5963H494.57L495.249 38.8622ZM495.249 7.2571L494.57 6.52299H494.57L495.249 7.2571ZM529.34 7.2571L528.656 7.98693L528.661 7.99119L529.34 7.2571ZM529.34 38.8622L528.661 38.1281L528.656 38.1324L529.34 38.8622ZM488.791 196V59.6364H486.791V196H488.791ZM487.791 60.6364H536.797V58.6364H487.791V60.6364ZM535.797 59.6364V196H537.797V59.6364H535.797ZM536.797 195H487.791V197H536.797V195ZM512.294 44.4318C505.909 44.4318 500.472 42.3317 495.928 38.1281L494.57 39.5963C499.495 44.1522 505.421 46.4318 512.294 46.4318V44.4318ZM495.928 38.1281C491.386 33.9274 489.146 28.9215 489.146 23.0597H487.146C487.146 29.5084 489.641 35.0375 494.57 39.5963L495.928 38.1281ZM489.146 23.0597C489.146 17.1978 491.386 12.1919 495.928 7.99119L494.57 6.52299C489.641 11.0818 487.146 16.6109 487.146 23.0597H489.146ZM495.928 7.9912C500.472 3.78759 505.909 1.6875 512.294 1.6875V-0.3125C505.421 -0.3125 499.495 1.96714 494.57 6.52299L495.928 7.9912ZM512.294 1.6875C518.74 1.6875 524.174 3.78901 528.656 7.98692L530.023 6.52727C525.153 1.96572 519.224 -0.3125 512.294 -0.3125V1.6875ZM528.661 7.99119C533.202 12.1919 535.442 17.1978 535.442 23.0597H537.442C537.442 16.6109 534.947 11.0818 530.019 6.52299L528.661 7.99119ZM535.442 23.0597C535.442 28.9215 533.202 33.9274 528.661 38.1281L530.019 39.5963C534.947 35.0375 537.442 29.5084 537.442 23.0597H535.442ZM528.656 38.1324C524.174 42.3303 518.74 44.4318 512.294 44.4318V46.4318C519.224 46.4318 525.153 44.1536 530.023 39.592L528.656 38.1324ZM593.556 244.118L593.927 243.189L593.924 243.188L593.556 244.118ZM570.917 228.138L570.132 228.757L570.133 228.758L570.917 228.138ZM561.951 204.878V203.878H560.873L560.953 204.952L561.951 204.878ZM609.181 204.878L610.168 204.717L610.031 203.878H609.181V204.878ZM612.732 211.891L612.048 212.621L612.732 211.891ZM620.012 215.709L620.276 214.744L620.263 214.741L620.012 215.709ZM645.846 212.335L645.255 211.528L645.25 211.532L645.846 212.335ZM652.149 172.562H653.149V171.562H652.149V172.562ZM650.729 172.562V171.562H650.042L649.796 172.204L650.729 172.562ZM642.561 184.37L643.218 185.124L643.225 185.118L642.561 184.37ZM629.333 191.739L629.64 192.691L629.65 192.687L629.333 191.739ZM585.566 187.477L585.081 188.352L585.083 188.353L585.566 187.477ZM566.034 166.082L565.139 166.527L565.141 166.531L566.034 166.082ZM566.389 87.6903L565.495 87.2431L565.493 87.2473L566.389 87.6903ZM586.276 65.0518L585.77 64.1894L585.767 64.191L586.276 65.0518ZM629.777 61.4119L629.356 62.3187L629.364 62.3227L629.777 61.4119ZM642.561 70.7337L641.81 71.3938L641.815 71.3994L642.561 70.7337ZM650.374 83.429L649.44 83.7879L649.687 84.429H650.374V83.429ZM651.439 83.429V84.429H652.439V83.429H651.439ZM651.439 59.6364V58.6364H650.439V59.6364H651.439ZM700.445 59.6364H701.445V58.6364H700.445V59.6364ZM691.478 225.031L690.675 224.434L690.671 224.441L691.478 225.031ZM666.443 243.585L666.811 244.515L666.443 243.585ZM642.029 155.695L642.643 156.484L642.645 156.482L642.029 155.695ZM649.486 144.864L648.55 144.512L648.547 144.519L649.486 144.864ZM649.486 110.506L648.543 110.84L648.546 110.847L648.548 110.854L649.486 110.506ZM642.029 99.4091L641.397 100.184L641.405 100.191L641.413 100.197L642.029 99.4091ZM618.946 99.4091L619.576 100.186L619.578 100.184L618.946 99.4091ZM611.666 110.506L610.724 110.173L610.721 110.18L611.666 110.506ZM611.666 145.041L610.723 145.372L610.725 145.379L610.728 145.386L611.666 145.041ZM618.946 155.783L618.325 156.567L618.333 156.574L618.342 156.58L618.946 155.783ZM628.712 248.977C615.131 248.977 603.545 247.037 593.927 243.189L593.184 245.046C603.098 249.012 614.949 250.977 628.712 250.977V248.977ZM593.924 243.188C584.348 239.393 576.958 234.16 571.701 227.517L570.133 228.758C575.648 235.728 583.351 241.149 593.187 245.048L593.924 243.188ZM571.702 227.518C566.502 220.931 563.584 213.369 562.948 204.804L560.953 204.952C561.619 213.906 564.679 221.85 570.132 228.757L571.702 227.518ZM561.951 205.878H609.181V203.878H561.951V205.878ZM608.194 205.039C608.698 208.127 609.972 210.675 612.048 212.621L613.416 211.162C611.704 209.557 610.61 207.429 610.168 204.717L608.194 205.039ZM612.048 212.621C614.084 214.53 616.668 215.873 619.76 216.677L620.263 214.741C617.437 214.006 615.168 212.804 613.416 211.162L612.048 212.621ZM619.747 216.673C622.866 217.529 626.331 217.952 630.132 217.952V215.952C626.477 215.952 623.194 215.545 620.276 214.744L619.747 216.673ZM630.132 217.952C636.63 217.952 642.091 216.371 646.442 213.138L645.25 211.532C641.315 214.455 636.3 215.952 630.132 215.952V217.952ZM646.437 213.142C651.013 209.791 653.149 203.834 653.149 195.645H651.149C651.149 203.554 649.084 208.724 645.255 211.528L646.437 213.142ZM653.149 195.645V172.562H651.149V195.645H653.149ZM652.149 171.562H650.729V173.562H652.149V171.562ZM649.796 172.204C648.077 176.672 645.446 180.474 641.898 183.622L643.225 185.118C647.015 181.756 649.83 177.686 651.662 172.921L649.796 172.204ZM641.905 183.616C638.346 186.716 634.055 189.111 629.017 190.79L629.65 192.687C634.91 190.934 639.438 188.416 643.218 185.124L641.905 183.616ZM629.027 190.787C623.989 192.408 618.442 193.224 612.377 193.224V195.224C618.622 195.224 624.379 194.384 629.64 192.691L629.027 190.787ZM612.377 193.224C602.832 193.224 594.062 191.015 586.048 186.601L585.083 188.353C593.405 192.936 602.509 195.224 612.377 195.224V193.224ZM586.051 186.603C578.148 182.219 571.766 175.251 566.928 165.632L565.141 166.531C570.127 176.443 576.767 183.74 585.081 188.352L586.051 186.603ZM566.93 165.637C562.169 156.057 559.755 143.471 559.755 127.818H557.755C557.755 143.652 560.193 156.575 565.139 166.527L566.93 165.637ZM559.755 127.818C559.755 111.456 562.287 98.2475 567.286 88.1334L565.493 87.2473C560.312 97.7297 557.755 111.273 557.755 127.818H559.755ZM567.284 88.1375C572.366 77.9729 578.875 70.589 586.785 65.9126L585.767 64.191C577.459 69.1028 570.711 76.8112 565.495 87.2431L567.284 88.1375ZM586.782 65.9143C594.805 61.2054 603.213 58.8608 612.022 58.8608V56.8608C602.838 56.8608 594.082 59.3103 585.77 64.1894L586.782 65.9143ZM612.022 58.8608C618.652 58.8608 624.422 60.0238 629.356 62.3186L630.199 60.5052C624.953 58.0652 618.885 56.8608 612.022 56.8608V58.8608ZM629.364 62.3227C634.335 64.5767 638.478 67.6019 641.81 71.3938L643.312 70.0735C639.779 66.0529 635.4 62.8636 630.19 60.5012L629.364 62.3227ZM641.815 71.3994C645.171 75.1603 647.71 79.289 649.44 83.7879L651.307 83.07C649.486 78.336 646.817 74.0012 643.307 70.0679L641.815 71.3994ZM650.374 84.429H651.439V82.429H650.374V84.429ZM652.439 83.429V59.6364H650.439V83.429H652.439ZM651.439 60.6364H700.445V58.6364H651.439V60.6364ZM699.445 59.6364V195.645H701.445V59.6364H699.445ZM699.445 195.645C699.445 207.005 696.506 216.583 690.675 224.434L692.281 225.627C698.406 217.38 701.445 207.367 701.445 195.645H699.445ZM690.671 224.441C684.88 232.374 676.698 238.453 666.075 242.655L666.811 244.515C677.731 240.195 686.24 233.904 692.286 225.62L690.671 224.441ZM666.075 242.655C655.445 246.861 642.997 248.977 628.712 248.977V250.977C643.191 250.977 655.897 248.832 666.811 244.515L666.075 242.655ZM630.487 160.423C635.182 160.423 639.252 159.121 642.643 156.484L641.415 154.905C638.414 157.239 634.789 158.423 630.487 158.423V160.423ZM642.645 156.482C646.074 153.801 648.657 150.023 650.425 145.208L648.547 144.519C646.882 149.056 644.494 152.498 641.413 154.907L642.645 156.482ZM650.422 145.215C652.251 140.339 653.149 134.532 653.149 127.818H651.149C651.149 134.362 650.272 139.919 648.55 144.513L650.422 145.215ZM653.149 127.818C653.149 120.988 652.251 115.093 650.424 110.159L648.548 110.854C650.272 115.507 651.149 121.154 651.149 127.818H653.149ZM650.429 110.173C648.665 105.184 646.083 101.309 642.645 98.6213L641.413 100.197C644.485 102.599 646.875 106.122 648.543 110.84L650.429 110.173ZM642.66 98.6339C639.269 95.8708 635.193 94.5028 630.487 94.5028V96.5028C634.778 96.5028 638.396 97.7391 641.397 100.184L642.66 98.6339ZM630.487 94.5028C625.782 94.5028 621.706 95.8708 618.315 98.6339L619.578 100.184C622.579 97.7391 626.197 96.5028 630.487 96.5028V94.5028ZM618.316 98.6325C615.002 101.321 612.485 105.193 610.724 110.173L612.609 110.84C614.281 106.113 616.617 102.587 619.576 100.186L618.316 98.6325ZM610.721 110.18C609.018 115.107 608.181 120.994 608.181 127.818H610.181C610.181 121.148 611 115.494 612.612 110.833L610.721 110.18ZM608.181 127.818C608.181 134.642 609.018 140.501 610.723 145.372L612.61 144.711C611.001 140.112 610.181 134.489 610.181 127.818H608.181ZM610.728 145.386C612.492 150.192 615.013 153.942 618.325 156.567L619.567 155C616.606 152.653 614.274 149.241 612.605 144.697L610.728 145.386ZM618.342 156.58C621.732 159.154 625.799 160.423 630.487 160.423V158.423C626.18 158.423 622.552 157.266 619.551 154.987L618.342 156.58ZM775.625 119.295L774.625 119.282V119.295H775.625ZM775.625 196V197H776.625V196H775.625ZM726.619 196H725.619V197H726.619V196ZM726.619 59.6364V58.6364H725.619V59.6364H726.619ZM773.139 59.6364H774.139V58.6364H773.139V59.6364ZM773.139 85.5597H772.139V86.5597H773.139V85.5597ZM774.56 85.5597V86.5597H775.274L775.506 85.8837L774.56 85.5597ZM790.185 65.2294L789.638 64.3923L789.635 64.3943L790.185 65.2294ZM841.587 64.5192L841.057 65.3672L841.066 65.3723L841.587 64.5192ZM858.189 82.63L857.297 83.0827L857.3 83.0881L858.189 82.63ZM864.048 108.997L863.048 108.991V108.997H864.048ZM864.048 196V197H865.048V196H864.048ZM815.043 196H814.043V197H815.043V196ZM815.043 119.295L814.043 119.287V119.295H815.043ZM809.894 103.404L809.147 104.07L809.153 104.076L809.894 103.404ZM784.947 100.297L785.449 101.162L785.454 101.159L784.947 100.297ZM778.111 107.754L779.005 108.201L779.009 108.195L778.111 107.754ZM774.625 119.295V196H776.625V119.295H774.625ZM775.625 195H726.619V197H775.625V195ZM727.619 196V59.6364H725.619V196H727.619ZM726.619 60.6364H773.139V58.6364H726.619V60.6364ZM772.139 59.6364V85.5597H774.139V59.6364H772.139ZM773.139 86.5597H774.56V84.5597H773.139V86.5597ZM775.506 85.8837C778.395 77.4469 783.467 70.8521 790.735 66.0645L789.635 64.3943C781.988 69.4315 776.643 76.3902 773.614 85.2357L775.506 85.8837ZM790.732 66.0665C798.068 61.2723 806.632 58.8608 816.463 58.8608V56.8608C806.289 56.8608 797.335 59.3617 789.638 64.3923L790.732 66.0665ZM816.463 58.8608C825.952 58.8608 834.137 61.0419 841.057 65.3672L842.117 63.6712C834.833 59.1186 826.269 56.8608 816.463 56.8608V58.8608ZM841.066 65.3723C848.065 69.6526 853.472 75.5488 857.297 83.0827L859.081 82.1773C855.093 74.3228 849.433 68.1452 842.109 63.6661L841.066 65.3723ZM857.3 83.0881C861.182 90.6195 863.107 99.2455 863.048 108.991L865.048 109.003C865.108 98.9808 863.127 90.0287 859.078 82.1718L857.3 83.0881ZM863.048 108.997V196H865.048V108.997H863.048ZM864.048 195H815.043V197H864.048V195ZM816.043 196V119.295H814.043V196H816.043ZM816.043 119.304C816.103 112.383 814.341 106.816 810.634 102.732L809.153 104.076C812.43 107.687 814.1 112.714 814.043 119.287L816.043 119.304ZM810.64 102.738C806.98 98.6374 801.891 96.6335 795.511 96.6335V98.6335C801.442 98.6335 805.941 100.477 809.147 104.07L810.64 102.738ZM795.511 96.6335C791.336 96.6335 787.634 97.5562 784.44 99.4349L785.454 101.159C788.297 99.4864 791.638 98.6335 795.511 98.6335V96.6335ZM784.445 99.4318C781.304 101.254 778.893 103.892 777.213 107.314L779.009 108.195C780.525 105.106 782.671 102.773 785.449 101.162L784.445 99.4318ZM777.216 107.307C775.536 110.668 774.686 114.671 774.625 119.282L776.625 119.309C776.683 114.923 777.49 111.232 779.005 108.201L777.216 107.307ZM917.189 190.141L916.716 191.022L916.722 191.025L917.189 190.141ZM892.953 165.993L892.071 166.464L892.074 166.47L892.953 165.993ZM893.042 91.2415L893.922 91.7162L893.042 91.2415ZM917.101 66.6499L917.593 67.5202V67.5202L917.101 66.6499ZM981.731 62.6548L982.089 61.721L981.731 62.6548ZM1003.13 76.593L1002.41 77.2896L1002.41 77.2931L1003.13 76.593ZM1016.8 98.6101L1015.86 98.957L1016.8 98.6101ZM1021.59 139.182V140.182H1022.59V139.182H1021.59ZM899.789 139.182H898.789V140.182H899.789V139.182ZM899.789 112.193V111.193H898.789V112.193H899.789ZM976.493 112.193V113.193H977.509L977.493 112.178L976.493 112.193ZM973.475 101.895L972.628 102.426L972.634 102.436L972.64 102.446L973.475 101.895ZM965.751 94.8814L965.278 95.7624L965.288 95.7676L965.297 95.7726L965.751 94.8814ZM943.912 94.8814L944.359 95.7758L944.365 95.7726L944.372 95.7694L943.912 94.8814ZM935.922 101.806L935.095 101.244L935.087 101.255L935.922 101.806ZM932.814 112.193L931.815 112.163L931.814 112.178V112.193H932.814ZM935.566 153.031L934.685 153.503L935.566 153.031ZM943.468 161.11L942.973 161.979L943.468 161.11ZM965.13 162.619L964.813 161.671L964.807 161.673L965.13 162.619ZM972.41 158.536L973.071 159.285L973.077 159.28L973.083 159.274L972.41 158.536ZM976.848 151.966V150.966H976.154L975.911 151.617L976.848 151.966ZM1021.59 151.966L1022.58 152.126L1022.77 150.966H1021.59V151.966ZM1010.67 176.646L1011.44 177.285L1011.45 177.281L1010.67 176.646ZM987.857 192.804L988.23 193.732L988.233 193.73L987.857 192.804ZM954.831 197.486C940.399 197.486 928.019 194.729 917.656 189.256L916.722 191.025C927.43 196.679 940.145 199.486 954.831 199.486V197.486ZM917.662 189.26C907.359 183.729 899.421 175.821 893.832 165.516L892.074 166.47C897.848 177.117 906.068 185.307 916.716 191.022L917.662 189.26ZM893.835 165.522C888.306 155.161 885.519 142.724 885.519 128.173H883.519C883.519 142.978 886.355 155.754 892.071 166.464L893.835 165.522ZM885.519 128.173C885.519 114.223 888.331 102.082 893.922 91.7162L892.161 90.7668C886.388 101.471 883.519 113.951 883.519 128.173H885.519ZM893.922 91.7162C899.515 81.3459 907.4 73.2863 917.593 67.5202L916.608 65.7795C906.086 71.7322 897.932 80.067 892.161 90.7668L893.922 91.7162ZM917.593 67.5202C927.775 61.7602 939.821 58.8608 953.766 58.8608V56.8608C939.539 56.8608 927.141 59.8207 916.608 65.7795L917.593 67.5202ZM953.766 58.8608C963.961 58.8608 973.159 60.4425 981.374 63.5887L982.089 61.721C973.614 58.4751 964.168 56.8608 953.766 56.8608V58.8608ZM981.374 63.5887C989.59 66.7355 996.597 71.3032 1002.41 77.2896L1003.84 75.8965C997.819 69.6906 990.563 64.9662 982.089 61.721L981.374 63.5887ZM1002.41 77.2931C1008.22 83.2207 1012.71 90.4361 1015.86 98.957L1017.74 98.2632C1014.5 89.5019 1009.87 82.0393 1003.84 75.893L1002.41 77.2931ZM1015.86 98.957C1019.01 107.469 1020.59 117.085 1020.59 127.818H1022.59C1022.59 116.889 1020.98 107.033 1017.74 98.2632L1015.86 98.957ZM1020.59 127.818V139.182H1022.59V127.818H1020.59ZM1021.59 138.182H899.789V140.182H1021.59V138.182ZM900.789 139.182V112.193H898.789V139.182H900.789ZM899.789 113.193H976.493V111.193H899.789V113.193ZM977.493 112.178C977.431 108.101 976.378 104.478 974.31 101.344L972.64 102.446C974.478 105.23 975.437 108.473 975.493 112.208L977.493 112.178ZM974.322 101.363C972.329 98.1877 969.617 95.7274 966.205 93.9902L965.297 95.7726C968.396 97.3498 970.833 99.5652 972.628 102.426L974.322 101.363ZM966.224 94.0004C962.865 92.1965 959.059 91.3068 954.831 91.3068V93.3068C958.771 93.3068 962.245 94.1335 965.278 95.7624L966.224 94.0004ZM954.831 91.3068C950.716 91.3068 946.917 92.1988 943.452 93.9934L944.372 95.7694C947.535 94.1312 951.016 93.3068 954.831 93.3068V91.3068ZM943.464 93.987C940.003 95.7178 937.207 98.138 935.095 101.244L936.749 102.368C938.661 99.5556 941.192 97.3594 944.359 95.7758L943.464 93.987ZM935.087 101.255C933.02 104.387 931.938 108.035 931.815 112.163L933.814 112.223C933.927 108.421 934.917 105.143 936.756 102.357L935.087 101.255ZM931.814 112.193V141.312H933.814V112.193H931.814ZM931.814 141.312C931.814 145.836 932.763 149.907 934.685 153.503L936.448 152.56C934.7 149.289 933.814 145.549 933.814 141.312H931.814ZM934.685 153.503C936.61 157.104 939.379 159.934 942.973 161.979L943.962 160.241C940.691 158.38 938.193 155.824 936.448 152.56L934.685 153.503ZM942.973 161.979C946.588 164.036 950.909 165.04 955.897 165.04V163.04C951.178 163.04 947.214 162.091 943.962 160.241L942.973 161.979ZM955.897 165.04C959.364 165.04 962.552 164.553 965.452 163.566L964.807 161.673C962.144 162.58 959.177 163.04 955.897 163.04V165.04ZM965.446 163.568C968.399 162.584 970.947 161.159 973.071 159.285L971.748 157.786C969.847 159.463 967.542 160.761 964.813 161.671L965.446 163.568ZM973.083 159.274C975.213 157.333 976.783 155.009 977.786 152.315L975.911 151.617C975.02 154.013 973.631 156.069 971.736 157.797L973.083 159.274ZM976.848 152.966H1021.59V150.966H976.848V152.966ZM1020.61 151.806C1019.09 161.112 1015.52 169.172 1009.9 176.011L1011.45 177.281C1017.31 170.153 1021.01 161.759 1022.58 152.126L1020.61 151.806ZM1009.9 176.008C1004.28 182.789 996.818 188.084 987.481 191.878L988.233 193.73C997.835 189.83 1005.58 184.353 1011.44 177.285L1009.9 176.008ZM987.484 191.876C978.217 195.606 967.34 197.486 954.831 197.486V199.486C967.536 199.486 978.676 197.577 988.23 193.732L987.484 191.876ZM1042.84 196H1041.84V197H1042.84V196ZM1042.84 59.6364V58.6364H1041.84V59.6364H1042.84ZM1090.43 59.6364H1091.43V58.6364H1090.43V59.6364ZM1090.43 85.5597H1089.43V86.5597H1090.43V85.5597ZM1091.85 85.5597V86.5597H1092.62L1092.81 85.8106L1091.85 85.5597ZM1103.65 64.5192L1103.02 63.7441L1103.02 63.7475L1103.65 64.5192ZM1129.04 58.3935L1128.88 59.3791L1128.89 59.3818L1128.91 59.384L1129.04 58.3935ZM1135.17 59.7251H1136.17V58.9833L1135.46 58.7681L1135.17 59.7251ZM1135.17 101.54L1134.85 102.486L1136.17 102.938V101.54H1135.17ZM1126.2 99.6754L1126.32 98.6822L1126.2 99.6754ZM1104.1 102.339L1104.59 103.21L1104.59 103.208L1104.1 102.339ZM1095.13 111.394L1096 111.889L1096 111.883L1095.13 111.394ZM1091.85 196V197H1092.85V196H1091.85ZM1043.84 196V59.6364H1041.84V196H1043.84ZM1042.84 60.6364H1090.43V58.6364H1042.84V60.6364ZM1089.43 59.6364V85.5597H1091.43V59.6364H1089.43ZM1090.43 86.5597H1091.85V84.5597H1090.43V86.5597ZM1092.81 85.8106C1095.27 76.344 1099.12 69.5498 1104.29 65.2909L1103.02 63.7475C1097.41 68.3663 1093.4 75.5992 1090.88 85.3087L1092.81 85.8106ZM1104.29 65.2943C1109.54 61.0064 1115.68 58.8608 1122.74 58.8608V56.8608C1115.24 56.8608 1108.65 59.1541 1103.02 63.7441L1104.29 65.2943ZM1122.74 58.8608C1124.82 58.8608 1126.86 59.0337 1128.88 59.3791L1129.21 57.4078C1127.08 57.043 1124.93 56.8608 1122.74 56.8608V58.8608ZM1128.91 59.384C1130.99 59.6731 1132.98 60.1062 1134.88 60.6822L1135.46 58.7681C1133.45 58.1604 1131.36 57.7057 1129.18 57.403L1128.91 59.384ZM1134.17 59.7251V101.54H1136.17V59.7251H1134.17ZM1135.49 100.593C1132.98 99.7349 1129.92 99.1017 1126.32 98.6822L1126.09 100.669C1129.59 101.078 1132.51 101.687 1134.85 102.486L1135.49 100.593ZM1126.32 98.6822C1122.74 98.265 1119.65 98.054 1117.06 98.054V100.054C1119.55 100.054 1122.56 100.257 1126.09 100.669L1126.32 98.6822ZM1117.06 98.054C1112.11 98.054 1107.61 99.187 1103.6 101.47L1104.59 103.208C1108.28 101.111 1112.42 100.054 1117.06 100.054V98.054ZM1103.61 101.467C1099.65 103.691 1096.54 106.844 1094.26 110.905L1096 111.883C1098.11 108.132 1100.96 105.248 1104.59 103.21L1103.61 101.467ZM1094.26 110.899C1091.97 114.922 1090.85 119.626 1090.85 124.977H1092.85C1092.85 119.912 1093.91 115.561 1096 111.889L1094.26 110.899ZM1090.85 124.977V196H1092.85V124.977H1090.85ZM1091.85 195H1042.84V197H1091.85V195Z" fill="black"/>
</svg>
