<svg width="980" height="248" viewBox="0 0 980 248" fill="none" xmlns="http://www.w3.org/2000/svg">
<path d="M117.947 74.196L116.976 74.4342L117.163 75.196H117.947V74.196ZM114.307 65.9396L113.482 66.5036L113.488 66.5131L114.307 65.9396ZM108.093 59.8139L107.515 60.6303L107.527 60.6383L107.538 60.646L108.093 59.8139ZM99.5702 55.9964L99.3026 56.96L99.313 56.9629L99.3235 56.9655L99.5702 55.9964ZM67.7876 60.6129L67.2271 59.7847L67.2232 59.7874L67.7876 60.6129ZM54.4708 77.7472L53.5464 77.3657L53.5439 77.372L54.4708 77.7472ZM54.2932 132.08L53.3593 132.437L54.2932 132.08ZM67.2549 149.48L66.6809 150.299L67.2549 149.48ZM107.383 152.232L106.984 151.315L106.98 151.317L107.383 152.232ZM118.658 142.911L117.807 142.385L118.658 142.911ZM122.386 128.706L122.49 127.711L121.386 127.596V128.706H122.386ZM130.909 129.594V130.594L131.013 128.599L130.909 129.594ZM89.3607 129.594H88.3607V130.594H89.3607V129.594ZM89.3607 94.4375V93.4375H88.3607V94.4375H89.3607ZM169.972 94.4375H170.972V93.4375H169.972V94.4375ZM159.407 162.175L158.549 161.662L158.548 161.663L159.407 162.175ZM130.465 189.164L130.917 190.056L130.919 190.055L130.465 189.164ZM41.6867 187.211L41.1968 188.083L41.6867 187.211ZM10.3479 155.073L9.46661 155.546L9.46817 155.549L10.3479 155.073ZM5.99778 65.4957L5.06864 65.126L5.06703 65.1301L5.99778 65.4957ZM25.1739 36.1101L25.8732 36.8249L25.8758 36.8223L25.1739 36.1101ZM53.4942 17.9105L53.8504 18.8449L53.8549 18.8432L53.4942 17.9105ZM117.947 16.3125L117.631 17.2612L117.638 17.2636L117.947 16.3125ZM142.539 29.2741L141.918 30.0582L141.925 30.0638L142.539 29.2741ZM159.851 49.0717L160.718 48.5742L159.851 49.0717ZM167.841 74.196V75.196H168.95L168.835 74.0927L167.841 74.196ZM118.919 73.9578C118.123 70.7149 116.863 67.8462 115.127 65.3662L113.488 66.5131C115.067 68.7679 116.233 71.4035 116.976 74.4342L118.919 73.9578ZM115.133 65.3757C113.402 62.8413 111.238 60.709 108.648 58.9819L107.538 60.646C109.919 62.2332 111.898 64.1847 113.482 66.5036L115.133 65.3757ZM108.67 58.9975C106.132 57.2018 103.175 55.8823 99.8169 55.0273L99.3235 56.9655C102.475 57.7678 105.201 58.9933 107.515 60.6303L108.67 58.9975ZM99.8379 55.0329C96.5421 54.1174 92.929 53.6648 89.0056 53.6648V55.6648C92.7763 55.6648 96.2063 56.0999 99.3026 56.96L99.8379 55.0329ZM89.0056 53.6648C80.5548 53.6648 73.2787 55.6892 67.2271 59.7848L68.348 61.4411C74.0151 57.6058 80.8844 55.6648 89.0056 55.6648V53.6648ZM67.2232 59.7874C61.2395 63.8783 56.687 69.7558 53.5464 77.3657L55.3952 78.1286C58.4099 70.8238 62.7352 65.2785 68.3519 61.4384L67.2232 59.7874ZM53.5439 77.372C50.4647 84.9792 48.9431 94.11 48.9431 104.736H50.9431C50.9431 94.2915 52.4399 85.4299 55.3977 78.1224L53.5439 77.372ZM48.9431 104.736C48.9431 115.475 50.4042 124.718 53.3593 132.437L55.2271 131.722C52.382 124.29 50.9431 115.303 50.9431 104.736H48.9431ZM53.3593 132.437C56.3192 140.169 60.7521 146.143 66.6809 150.299L67.8289 148.661C62.2757 144.768 58.0675 139.142 55.2271 131.722L53.3593 132.437ZM66.6809 150.299C72.6235 154.465 79.9674 156.517 88.6505 156.517V154.517C80.2882 154.517 73.3683 152.545 67.8289 148.661L66.6809 150.299ZM88.6505 156.517C96.256 156.517 102.648 155.41 107.786 153.147L106.98 151.317C102.174 153.434 96.0781 154.517 88.6505 154.517V156.517ZM107.782 153.149C112.969 150.891 116.899 147.661 119.508 143.436L117.807 142.385C115.445 146.21 111.858 149.193 106.984 151.315L107.782 153.149ZM119.508 143.436C122.106 139.231 123.386 134.308 123.386 128.706H121.386C121.386 133.994 120.181 138.541 117.807 142.385L119.508 143.436ZM122.283 129.701L130.805 130.588L131.013 128.599L122.49 127.711L122.283 129.701ZM130.909 128.594H89.3607V130.594H130.909V128.594ZM90.3607 129.594V94.4375H88.3607V129.594H90.3607ZM89.3607 95.4375H169.972V93.4375H89.3607V95.4375ZM168.972 94.4375V119.651H170.972V94.4375H168.972ZM168.972 119.651C168.972 136.079 165.481 150.069 158.549 161.662L160.265 162.689C167.419 150.726 170.972 136.366 170.972 119.651H168.972ZM158.548 161.663C151.662 173.218 142.156 182.084 130.011 188.273L130.919 190.055C143.396 183.697 153.184 174.57 160.266 162.687L158.548 161.663ZM130.013 188.272C117.922 194.405 104.024 197.486 88.2954 197.486V199.486C104.29 199.486 118.506 196.352 130.917 190.056L130.013 188.272ZM88.2954 197.486C70.7439 197.486 55.3814 193.76 42.1766 186.339L41.1968 188.083C54.7439 195.695 70.4539 199.486 88.2954 199.486V197.486ZM42.1766 186.339C28.9707 178.918 18.6572 168.345 11.2277 154.598L9.46817 155.549C17.0717 169.618 27.6509 180.471 41.1968 188.083L42.1766 186.339ZM11.2292 154.601C3.86483 140.865 0.161843 124.492 0.161843 105.446H-1.83816C-1.83816 124.752 1.91624 141.464 9.46661 155.546L11.2292 154.601ZM0.161843 105.446C0.161843 90.5129 2.42537 77.324 6.92853 65.8614L5.06703 65.1301C0.455608 76.8682 -1.83816 90.3129 -1.83816 105.446H0.161843ZM6.92691 65.8655C11.4966 54.3828 17.8144 44.7085 25.8732 36.8249L24.4746 35.3952C16.1982 43.4918 9.73196 53.4079 5.06865 65.126L6.92691 65.8655ZM25.8758 36.8223C33.9449 28.8703 43.2673 22.8794 53.8504 18.8449L53.138 16.9761C42.296 21.1092 32.7382 27.2514 24.472 35.3978L25.8758 36.8223ZM53.8549 18.8432C64.445 14.7476 75.8039 12.696 87.9403 12.696V10.696C75.5738 10.696 63.9687 12.7874 53.1335 16.9778L53.8549 18.8432ZM87.9403 12.696C98.616 12.696 108.51 14.2209 117.631 17.2612L118.264 15.3638C108.918 12.2487 98.8081 10.696 87.9403 10.696V12.696ZM117.638 17.2636C126.826 20.2482 134.916 24.5149 141.918 30.0582L143.16 28.4901C135.957 22.7881 127.653 18.4137 118.256 15.3614L117.638 17.2636ZM141.925 30.0638C148.987 35.5499 154.67 42.0508 158.983 49.5693L160.718 48.5742C156.272 40.8228 150.414 34.1253 143.152 28.4844L141.925 30.0638ZM158.983 49.5693C163.291 57.0782 165.913 65.3178 166.846 74.2994L168.835 74.0927C167.875 64.8451 165.17 56.3352 160.718 48.5742L158.983 49.5693ZM167.841 73.196H117.947V75.196H167.841V73.196ZM194.948 196H193.948V197H194.948V196ZM194.948 59.6364V58.6364H193.948V59.6364H194.948ZM242.533 59.6364H243.533V58.6364H242.533V59.6364ZM242.533 85.5597H241.533V86.5597H242.533V85.5597ZM243.953 85.5597V86.5597H244.727L244.921 85.8106L243.953 85.5597ZM255.761 64.5192L255.129 63.7441L255.125 63.7475L255.761 64.5192ZM281.151 58.3935L280.982 59.3791L280.998 59.3818L281.014 59.384L281.151 58.3935ZM287.277 59.7251H288.277V58.9833L287.567 58.7681L287.277 59.7251ZM287.277 101.54L286.954 102.486L288.277 102.938V101.54H287.277ZM278.31 99.6754L278.426 98.6822L278.31 99.6754ZM256.205 102.339L256.695 103.21L256.699 103.208L256.205 102.339ZM247.238 111.394L248.107 111.889L248.11 111.883L247.238 111.394ZM243.953 196V197H244.953V196H243.953ZM195.948 196V59.6364H193.948V196H195.948ZM194.948 60.6364H242.533V58.6364H194.948V60.6364ZM241.533 59.6364V85.5597H243.533V59.6364H241.533ZM242.533 86.5597H243.953V84.5597H242.533V86.5597ZM244.921 85.8106C247.376 76.344 251.229 69.5498 256.397 65.2909L255.125 63.7475C249.521 68.3663 245.503 75.5992 242.985 85.3087L244.921 85.8106ZM256.393 65.2943C261.652 61.0064 267.789 58.8608 274.848 58.8608V56.8608C267.347 56.8608 260.759 59.1541 255.129 63.7441L256.393 65.2943ZM274.848 58.8608C276.923 58.8608 278.967 59.0337 280.982 59.3791L281.32 57.4078C279.192 57.043 277.035 56.8608 274.848 56.8608V58.8608ZM281.014 59.384C283.096 59.6731 285.086 60.1062 286.987 60.6822L287.567 58.7681C285.561 58.1604 283.468 57.7057 281.289 57.403L281.014 59.384ZM286.277 59.7251V101.54H288.277V59.7251H286.277ZM287.6 100.593C285.086 99.7349 282.023 99.1017 278.426 98.6822L278.195 100.669C281.701 101.078 284.615 101.687 286.954 102.486L287.6 100.593ZM278.426 98.6822C274.851 98.265 271.762 98.054 269.166 98.054V100.054C271.661 100.054 274.668 100.257 278.195 100.669L278.426 98.6822ZM269.166 98.054C264.214 98.054 259.72 99.187 255.71 101.47L256.699 103.208C260.383 101.111 264.531 100.054 269.166 100.054V98.054ZM255.714 101.467C251.761 103.691 248.643 106.844 246.366 110.905L248.11 111.883C250.213 108.132 253.072 105.248 256.695 103.21L255.714 101.467ZM246.369 110.899C244.079 114.922 242.953 119.626 242.953 124.977H244.953C244.953 119.912 246.017 115.561 248.107 111.889L246.369 110.899ZM242.953 124.977V196H244.953V124.977H242.953ZM243.953 195H194.948V197H243.953V195ZM313.163 193.869L312.762 194.786L312.772 194.79L313.163 193.869ZM297.538 180.73L296.698 181.273L297.538 180.73ZM295.674 139.271L296.574 139.706L296.576 139.702L295.674 139.271ZM306.327 126.22L306.922 127.024L306.327 126.22ZM322.218 118.496L321.939 117.536L321.936 117.537L322.218 118.496ZM341.927 115.034L342.003 116.031L342.005 116.031L341.927 115.034ZM360.304 112.903L360.481 113.888L360.491 113.886L360.304 112.903ZM370.425 109.263L371.021 110.066L371.029 110.061L371.036 110.055L370.425 109.263ZM369.449 94.4375L368.878 95.2584L369.449 94.4375ZM347.52 94.7038L348.09 95.5254L348.094 95.5231L347.52 94.7038ZM342.282 104.026V105.026H343.151L343.273 104.165L342.282 104.026ZM297.183 104.026L296.186 103.954L296.109 105.026H297.183V104.026ZM305.084 81.1207L304.254 80.5628L304.253 80.5644L305.084 81.1207ZM325.77 64.2528L326.191 65.16L326.195 65.1577L325.77 64.2528ZM385.961 61.3232L385.676 62.2816L385.683 62.2836L385.961 61.3232ZM405.759 70.8224L405.159 71.6225L405.165 71.6266L405.759 70.8224ZM418.188 85.027L417.301 85.4896L417.307 85.5011L418.188 85.027ZM422.538 196V197H423.538V196H422.538ZM376.728 196H375.728V197H376.728V196ZM376.728 176.824H377.728V175.824H376.728V176.824ZM375.663 176.824V175.824H375.064L374.781 176.352L375.663 176.824ZM365.72 189.164L365.094 188.384L365.088 188.389L365.72 189.164ZM352.492 196L352.217 195.038L352.214 195.039L352.492 196ZM362.701 164.928L362.28 164.021L362.274 164.023L362.701 164.928ZM370.78 158.269L369.967 157.688L370.78 158.269ZM373.888 136.341H374.888V134.851L373.509 135.415L373.888 136.341ZM369.715 137.85L369.41 136.898L369.399 136.901L369.715 137.85ZM365.098 139.182L364.856 138.212L364.848 138.214L365.098 139.182ZM359.949 140.336L359.759 139.354L359.753 139.355L359.949 140.336ZM354.356 141.312L354.206 140.324L354.202 140.324L354.356 141.312ZM345.035 144.242L345.516 145.118L345.524 145.114L345.035 144.242ZM339.708 149.125L338.853 148.607L338.848 148.614L339.708 149.125ZM342.016 164.217L342.619 163.419L342.016 164.217ZM336.245 197.131C327.654 197.131 320.096 195.728 313.554 192.949L312.772 194.79C319.606 197.692 327.437 199.131 336.245 199.131V197.131ZM313.564 192.953C307.108 190.129 302.055 185.875 298.378 180.187L296.698 181.273C300.597 187.304 305.961 191.81 312.762 194.785L313.564 192.953ZM298.378 180.187C294.722 174.531 292.856 167.277 292.856 158.358H290.856C290.856 167.549 292.779 175.21 296.698 181.273L298.378 180.187ZM292.856 158.358C292.856 151.011 294.11 144.806 296.574 139.706L294.773 138.836C292.147 144.271 290.856 150.79 290.856 158.358H292.856ZM296.576 139.702C299.054 134.516 302.502 130.296 306.922 127.024L305.732 125.416C301.038 128.891 297.384 133.372 294.771 138.839L296.576 139.702ZM306.922 127.024C311.375 123.727 316.564 121.202 322.501 119.456L321.936 117.537C315.799 119.342 310.394 121.966 305.732 125.416L306.922 127.024ZM322.498 119.457C328.521 117.702 335.021 116.559 342.003 116.031L341.852 114.037C334.747 114.574 328.109 115.739 321.939 117.536L322.498 119.457ZM342.005 116.031C349.655 115.438 355.818 114.725 360.481 113.888L360.128 111.919C355.558 112.739 349.47 113.446 341.85 114.037L342.005 116.031ZM360.491 113.886C365.21 112.99 368.765 111.742 371.021 110.066L369.829 108.461C367.942 109.862 364.75 111.041 360.118 111.921L360.491 113.886ZM371.036 110.055C373.352 108.269 374.532 105.876 374.532 102.96H372.532C372.532 105.253 371.642 107.062 369.814 108.472L371.036 110.055ZM374.532 102.96V102.605H372.532V102.96H374.532ZM374.532 102.605C374.532 98.7539 373.033 95.7125 370.02 93.6166L368.878 95.2584C371.31 96.9503 372.532 99.354 372.532 102.605H374.532ZM370.02 93.6166C367.087 91.5768 363.38 90.5966 358.973 90.5966V92.5966C363.088 92.5966 366.365 93.5103 368.878 95.2584L370.02 93.6166ZM358.973 90.5966C354.152 90.5966 350.118 91.6651 346.947 93.8846L348.094 95.5231C350.842 93.5995 354.442 92.5966 358.973 92.5966V90.5966ZM346.95 93.8822C343.775 96.0852 341.914 99.4684 341.292 103.886L343.273 104.165C343.834 100.178 345.465 97.3471 348.09 95.5254L346.95 93.8822ZM342.282 103.026H297.183V105.026H342.282V103.026ZM298.18 104.097C298.76 95.9864 301.335 88.5183 305.915 81.6771L304.253 80.5644C299.482 87.691 296.79 95.4928 296.186 103.954L298.18 104.097ZM305.914 81.6786C310.53 74.812 317.271 69.299 326.191 65.1599L325.349 63.3458C316.157 67.6111 309.108 73.3433 304.254 80.5628L305.914 81.6786ZM326.195 65.1577C335.079 60.9771 346.227 58.8608 359.683 58.8608V56.8608C346.032 56.8608 334.571 59.0059 325.344 63.348L326.195 65.1577ZM359.683 58.8608C369.371 58.8608 378.032 60.0059 385.676 62.2816L386.247 60.3647C378.384 58.0239 369.526 56.8608 359.683 56.8608V58.8608ZM385.683 62.2836C393.341 64.5051 399.827 67.6232 405.159 71.6224L406.359 70.0224C400.801 65.8541 394.088 62.6393 386.24 60.3627L385.683 62.2836ZM405.165 71.6266C410.5 75.5704 414.538 80.1924 417.301 85.4895L419.075 84.5644C416.156 78.9715 411.908 74.1237 406.353 70.0183L405.165 71.6266ZM417.307 85.5011C420.126 90.736 421.538 96.4317 421.538 102.605H423.538C423.538 96.1128 422.05 90.0897 419.068 84.5529L417.307 85.5011ZM421.538 102.605V196H423.538V102.605H421.538ZM422.538 195H376.728V197H422.538V195ZM377.728 196V176.824H375.728V196H377.728ZM376.728 175.824H375.663V177.824H376.728V175.824ZM374.781 176.352C372.113 181.341 368.88 185.344 365.094 188.384L366.346 189.944C370.372 186.711 373.768 182.486 376.545 177.296L374.781 176.352ZM365.088 188.389C361.35 191.437 357.064 193.654 352.217 195.038L352.767 196.962C357.863 195.505 362.395 193.165 366.352 189.939L365.088 188.389ZM352.214 195.039C347.405 196.43 342.084 197.131 336.245 197.131V199.131C342.244 199.131 347.754 198.411 352.77 196.961L352.214 195.039ZM352.226 168.236C356.097 168.236 359.735 167.436 363.129 165.832L362.274 164.023C359.157 165.497 355.812 166.236 352.226 166.236V168.236ZM363.123 165.835C366.59 164.225 369.419 161.895 371.594 158.85L369.967 157.688C367.998 160.444 365.442 162.553 362.28 164.021L363.123 165.835ZM371.594 158.85C373.806 155.754 374.888 152.021 374.888 147.705H372.888C372.888 151.674 371.898 154.984 369.967 157.688L371.594 158.85ZM374.888 147.705V136.341H372.888V147.705H374.888ZM373.509 135.415C372.233 135.937 370.867 136.431 369.41 136.898L370.02 138.803C371.522 138.322 372.937 137.81 374.266 137.266L373.509 135.415ZM369.399 136.901C368.006 137.366 366.492 137.803 364.856 138.212L365.341 140.152C367.02 139.732 368.583 139.281 370.031 138.799L369.399 136.901ZM364.848 138.214C363.272 138.622 361.576 139.003 359.759 139.354L360.139 141.318C361.992 140.959 363.729 140.57 365.349 140.15L364.848 138.214ZM359.753 139.355C357.994 139.707 356.145 140.03 354.206 140.324L354.506 142.301C356.473 142.003 358.353 141.675 360.145 141.317L359.753 139.355ZM354.202 140.324C350.338 140.928 347.107 141.933 344.545 143.37L345.524 145.114C347.815 143.829 350.799 142.88 354.511 142.301L354.202 140.324ZM344.553 143.366C342.06 144.737 340.143 146.478 338.853 148.607L340.563 149.643C341.64 147.866 343.274 146.352 345.516 145.118L344.553 143.366ZM338.848 148.614C337.625 150.674 337.021 152.984 337.021 155.517H339.021C339.021 153.315 339.542 151.363 340.568 149.636L338.848 148.614ZM337.021 155.517C337.021 159.57 338.464 162.787 341.413 165.015L342.619 163.419C340.242 161.623 339.021 159.04 339.021 155.517H337.021ZM341.413 165.015C344.288 167.188 347.918 168.236 352.226 168.236V166.236C348.247 166.236 345.07 165.272 342.619 163.419L341.413 165.015ZM447.203 247.136H446.203V248.136H447.203V247.136ZM447.203 59.6364V58.6364H446.203V59.6364H447.203ZM495.854 59.6364H496.854V58.6364H495.854V59.6364ZM495.854 83.429H494.854V84.429H495.854V83.429ZM496.919 83.429V84.429H497.606L497.853 83.7879L496.919 83.429ZM504.732 70.7337L505.478 71.3995L505.483 71.3938L504.732 70.7337ZM517.516 61.4119L517.929 62.3227L517.938 62.3186L517.516 61.4119ZM560.929 65.0518L560.42 65.9127L560.422 65.9143L560.929 65.0518ZM580.815 87.6903L579.918 88.1334L579.92 88.1375L580.815 87.6903ZM581.17 166.969L580.266 166.541L580.264 166.545L581.17 166.969ZM561.639 190.141L561.11 189.292L561.107 189.294L561.639 190.141ZM517.782 194.668L517.388 195.587L517.395 195.59L517.401 195.593L517.782 194.668ZM504.998 186.057L504.274 186.746L504.279 186.752L504.285 186.758L504.998 186.057ZM496.919 173.628L497.844 173.248L497.59 172.628H496.919V173.628ZM496.209 173.628V172.628H495.209V173.628H496.209ZM496.209 247.136V248.136H497.209V247.136H496.209ZM497.718 145.041L496.776 145.375L496.778 145.382L496.781 145.389L497.718 145.041ZM505.176 156.227L504.536 156.995L504.543 157.002L504.551 157.008L505.176 156.227ZM528.258 156.316L528.888 157.093L528.89 157.091L528.258 156.316ZM535.538 145.219L534.595 144.885L534.593 144.892L535.538 145.219ZM535.538 110.506L534.592 110.83L534.594 110.837L534.596 110.843L535.538 110.506ZM528.258 99.4091L527.619 100.178L527.627 100.185L527.635 100.191L528.258 99.4091ZM505.176 99.4091L505.799 100.191L505.8 100.19L505.176 99.4091ZM497.718 110.506L496.779 110.163L496.777 110.169L497.718 110.506ZM448.203 247.136V59.6364H446.203V247.136H448.203ZM447.203 60.6364H495.854V58.6364H447.203V60.6364ZM494.854 59.6364V83.429H496.854V59.6364H494.854ZM495.854 84.429H496.919V82.429H495.854V84.429ZM497.853 83.7879C499.583 79.289 502.122 75.1603 505.478 71.3994L503.986 70.0679C500.476 74.0012 497.807 78.336 495.986 83.07L497.853 83.7879ZM505.483 71.3938C508.815 67.6019 512.958 64.5767 517.929 62.3227L517.103 60.5012C511.893 62.8636 507.514 66.0529 503.981 70.0735L505.483 71.3938ZM517.938 62.3186C522.872 60.0238 528.641 58.8608 535.272 58.8608V56.8608C528.408 56.8608 522.34 58.0652 517.094 60.5052L517.938 62.3186ZM535.272 58.8608C544.08 58.8608 552.458 61.2053 560.42 65.9126L561.438 64.191C553.182 59.3104 544.455 56.8608 535.272 56.8608V58.8608ZM560.422 65.9143C568.389 70.5903 574.896 77.9724 579.918 88.1334L581.711 87.2473C576.554 76.8117 569.803 69.1015 561.435 64.1894L560.422 65.9143ZM579.92 88.1375C584.977 98.2504 587.539 111.458 587.539 127.818H589.539C589.539 111.271 586.951 97.7268 581.709 87.2431L579.92 88.1375ZM587.539 127.818C587.539 143.465 585.096 156.358 580.266 166.541L582.074 167.398C587.069 156.866 589.539 143.658 589.539 127.818H587.539ZM580.264 166.545C575.478 176.761 569.085 184.322 561.11 189.292L562.168 190.989C570.528 185.779 577.156 177.893 582.076 167.394L580.264 166.545ZM561.107 189.294C553.16 194.282 544.438 196.776 534.916 196.776V198.776C544.808 198.776 553.9 196.179 562.17 190.988L561.107 189.294ZM534.916 196.776C528.633 196.776 523.054 195.758 518.163 193.744L517.401 195.593C522.572 197.722 528.416 198.776 534.916 198.776V196.776ZM518.176 193.749C513.316 191.666 509.165 188.867 505.711 185.356L504.285 186.758C507.934 190.467 512.305 193.409 517.388 195.587L518.176 193.749ZM505.723 185.367C502.315 181.786 499.691 177.748 497.844 173.248L495.994 174.007C497.936 178.74 500.698 182.988 504.274 186.746L505.723 185.367ZM496.919 172.628H496.209V174.628H496.919V172.628ZM495.209 173.628V247.136H497.209V173.628H495.209ZM496.209 246.136H447.203V248.136H496.209V246.136ZM494.144 127.818C494.144 134.53 495.012 140.389 496.776 145.375L498.661 144.708C496.992 139.987 496.144 134.364 496.144 127.818H494.144ZM496.781 145.389C498.603 150.309 501.178 154.197 504.536 156.995L505.816 155.459C502.782 152.931 500.385 149.361 498.656 144.694L496.781 145.389ZM504.551 157.008C507.998 159.766 512.1 161.134 516.806 161.134V159.134C512.515 159.134 508.864 157.897 505.8 155.446L504.551 157.008ZM516.806 161.134C521.506 161.134 525.553 159.799 528.888 157.093L527.628 155.539C524.69 157.923 521.102 159.134 516.806 159.134V161.134ZM528.89 157.091C532.26 154.345 534.779 150.475 536.483 145.545L534.593 144.892C532.982 149.551 530.648 153.078 527.626 155.541L528.89 157.091ZM536.481 145.552C538.245 140.564 539.112 134.646 539.112 127.818H537.112C537.112 134.485 536.264 140.167 534.595 144.885L536.481 145.552ZM539.112 127.818C539.112 120.991 538.245 115.1 536.479 110.169L534.596 110.843C536.264 115.501 537.112 121.151 537.112 127.818H539.112ZM536.484 110.183C534.781 105.195 532.26 101.318 528.881 98.6268L527.635 100.191C530.648 102.59 532.98 106.111 534.592 110.83L536.484 110.183ZM528.897 98.6397C525.562 95.8708 521.511 94.5028 516.806 94.5028V96.5028C521.096 96.5028 524.681 97.739 527.619 100.178L528.897 98.6397ZM516.806 94.5028C512.1 94.5028 507.998 95.8707 504.551 98.6282L505.8 100.19C508.864 97.7392 512.515 96.5028 516.806 96.5028V94.5028ZM504.553 98.6268C501.18 101.313 498.601 105.182 496.779 110.163L498.657 110.85C500.386 106.124 502.78 102.595 505.799 100.191L504.553 98.6268ZM496.777 110.169C495.011 115.1 494.144 120.991 494.144 127.818H496.144C496.144 121.151 496.992 115.501 498.66 110.843L496.777 110.169ZM659.324 119.295L658.324 119.282V119.295H659.324ZM659.324 196V197H660.324V196H659.324ZM610.319 196H609.319V197H610.319V196ZM610.319 14.1818V13.1818H609.319V14.1818H610.319ZM657.549 14.1818H658.549V13.1818H657.549V14.1818ZM657.549 85.5597H656.549V86.5597H657.549V85.5597ZM658.969 85.5597V86.5597H659.676L659.912 85.8931L658.969 85.5597ZM674.328 65.2294L674.889 66.0572L674.893 66.054L674.328 65.2294ZM725.287 64.4304L724.762 65.2816L724.765 65.2835L725.287 64.4304ZM741.888 82.5412L740.997 82.9939L740.999 82.9993L741.888 82.5412ZM747.748 108.997L746.748 108.991V108.997H747.748ZM747.748 196V197H748.748V196H747.748ZM698.742 196H697.742V197H698.742V196ZM698.742 119.295L697.742 119.287V119.295H698.742ZM693.682 103.404L692.93 104.063L692.935 104.07L693.682 103.404ZM668.735 100.297L669.237 101.162L669.242 101.159L668.735 100.297ZM661.81 107.754L660.919 107.301L660.916 107.307L661.81 107.754ZM658.324 119.295V196H660.324V119.295H658.324ZM659.324 195H610.319V197H659.324V195ZM611.319 196V14.1818H609.319V196H611.319ZM610.319 15.1818H657.549V13.1818H610.319V15.1818ZM656.549 14.1818V85.5597H658.549V14.1818H656.549ZM657.549 86.5597H658.969V84.5597H657.549V86.5597ZM659.912 85.8931C662.923 77.3799 667.916 70.7824 674.889 66.0572L673.767 64.4016C666.417 69.3828 661.17 76.3389 658.026 85.2262L659.912 85.8931ZM674.893 66.054C681.863 61.2732 690.27 58.8608 700.162 58.8608V56.8608C689.932 56.8608 681.115 59.3608 673.762 64.4048L674.893 66.054ZM700.162 58.8608C709.654 58.8608 717.841 61.0135 724.762 65.2816L725.812 63.5792C718.528 59.0878 709.966 56.8608 700.162 56.8608V58.8608ZM724.765 65.2835C731.764 69.5638 737.172 75.4601 740.997 82.9939L742.78 82.0885C738.792 74.2341 733.132 68.0565 725.808 63.5773L724.765 65.2835ZM740.999 82.9993C744.88 90.5299 746.806 99.1853 746.748 108.991L748.748 109.003C748.808 98.9227 746.827 89.9407 742.777 82.0831L740.999 82.9993ZM746.748 108.997V196H748.748V108.997H746.748ZM747.748 195H698.742V197H747.748V195ZM699.742 196V119.295H697.742V196H699.742ZM699.742 119.304C699.803 112.387 698.072 106.822 694.428 102.738L692.935 104.07C696.157 107.68 697.8 112.709 697.742 119.287L699.742 119.304ZM694.433 102.745C690.828 98.6332 685.702 96.6335 679.211 96.6335V98.6335C685.267 98.6335 689.788 100.481 692.93 104.063L694.433 102.745ZM679.211 96.6335C675.091 96.6335 671.419 97.5575 668.228 99.4349L669.242 101.159C672.087 99.4851 675.399 98.6335 679.211 98.6335V96.6335ZM668.233 99.4318C665.096 101.252 662.657 103.886 660.919 107.301L662.701 108.208C664.277 105.112 666.455 102.775 669.237 101.162L668.233 99.4318ZM660.916 107.307C659.235 110.668 658.385 114.671 658.324 119.282L660.324 119.309C660.382 114.923 661.189 111.232 662.705 108.201L660.916 107.307ZM773.19 196H772.19V197H773.19V196ZM773.19 59.6364V58.6364H772.19V59.6364H773.19ZM822.195 59.6364H823.195V58.6364H822.195V59.6364ZM822.195 196V197H823.195V196H822.195ZM780.647 38.8622L779.968 39.5963L780.647 38.8622ZM780.647 7.2571L779.968 6.52299L780.647 7.2571ZM814.738 7.2571L814.054 7.98693L814.059 7.99119L814.738 7.2571ZM814.738 38.8622L814.059 38.1281L814.054 38.1324L814.738 38.8622ZM774.19 196V59.6364H772.19V196H774.19ZM773.19 60.6364H822.195V58.6364H773.19V60.6364ZM821.195 59.6364V196H823.195V59.6364H821.195ZM822.195 195H773.19V197H822.195V195ZM797.693 44.4318C791.308 44.4318 785.871 42.3317 781.326 38.1281L779.968 39.5963C784.893 44.1522 790.82 46.4318 797.693 46.4318V44.4318ZM781.326 38.1281C776.785 33.9274 774.545 28.9215 774.545 23.0597H772.545C772.545 29.5084 775.04 35.0375 779.968 39.5963L781.326 38.1281ZM774.545 23.0597C774.545 17.1978 776.785 12.1919 781.326 7.99119L779.968 6.52299C775.04 11.0818 772.545 16.6109 772.545 23.0597H774.545ZM781.326 7.9912C785.871 3.78759 791.308 1.6875 797.693 1.6875V-0.3125C790.82 -0.3125 784.893 1.96714 779.968 6.52299L781.326 7.9912ZM797.693 1.6875C804.139 1.6875 809.573 3.78901 814.054 7.98692L815.422 6.52727C810.552 1.96572 804.622 -0.3125 797.693 -0.3125V1.6875ZM814.059 7.99119C818.6 12.1919 820.84 17.1978 820.84 23.0597H822.84C822.84 16.6109 820.345 11.0818 815.417 6.52299L814.059 7.99119ZM820.84 23.0597C820.84 28.9215 818.6 33.9274 814.059 38.1281L815.417 39.5963C820.345 35.0375 822.84 29.5084 822.84 23.0597H820.84ZM814.054 38.1324C809.573 42.3303 804.139 44.4318 797.693 44.4318V46.4318C804.622 46.4318 810.552 44.1536 815.422 39.592L814.054 38.1324ZM876.113 189.697L875.623 190.569L875.627 190.571L876.113 189.697ZM851.877 165.016L850.993 165.485L850.994 165.487L851.877 165.016ZM851.877 91.419L852.759 91.8899L852.76 91.8878L851.877 91.419ZM876.113 66.7386L876.599 67.6126L876.603 67.6105L876.113 66.7386ZM948.823 65.1406L948.378 66.0362L948.384 66.0393L948.823 65.1406ZM971.639 85.5597L970.785 86.0809L970.787 86.0834L971.639 85.5597ZM979.806 116.455V117.455H980.811L980.806 116.45L979.806 116.455ZM934.352 116.455L933.356 116.545L933.439 117.455H934.352V116.455ZM928.137 100.119L927.396 100.791L927.402 100.797L927.407 100.803L928.137 100.119ZM903.635 98.1662L904.239 98.9627L904.248 98.9555L903.635 98.1662ZM896.177 109.263L897.118 109.603L897.119 109.6L896.177 109.263ZM896.177 146.462L895.235 146.798L895.237 146.802L896.177 146.462ZM903.635 157.559L903.021 158.348L903.03 158.355L903.635 157.559ZM924.409 158.713L924.92 159.572L924.927 159.568L924.934 159.564L924.409 158.713ZM931.156 151.256L930.274 150.783L930.271 150.789L931.156 151.256ZM934.352 139.182V138.182H933.424L933.355 139.107L934.352 139.182ZM979.806 139.182L980.806 139.197L980.821 138.182H979.806V139.182ZM971.55 170.609L972.407 171.124L972.409 171.121L971.55 170.609ZM948.911 191.206L948.466 190.31L948.464 190.312L948.911 191.206ZM914.11 197.486C899.446 197.486 886.955 194.583 876.599 188.823L875.627 190.571C886.341 196.53 899.182 199.486 914.11 199.486V197.486ZM876.603 188.825C866.232 182.999 858.291 174.91 852.759 164.545L850.994 165.487C856.708 176.193 864.924 184.558 875.623 190.569L876.603 188.825ZM852.76 164.548C847.226 154.12 844.443 142.005 844.443 128.173H842.443C842.443 142.278 845.282 154.724 850.993 165.485L852.76 164.548ZM844.443 128.173C844.443 114.342 847.226 102.257 852.759 91.8899L850.994 90.9482C845.282 101.651 842.443 114.069 842.443 128.173H844.443ZM852.76 91.8878C858.292 81.4651 866.232 73.3786 876.599 67.6125L875.627 65.8647C864.924 71.8174 856.707 80.1845 850.993 90.9502L852.76 91.8878ZM876.603 67.6105C886.958 61.7929 899.447 58.8608 914.11 58.8608V56.8608C899.181 56.8608 886.338 59.8473 875.623 65.8668L876.603 67.6105ZM914.11 58.8608C927.366 58.8608 938.778 61.2655 948.378 66.0361L949.268 64.2451C939.336 59.3093 927.606 56.8608 914.11 56.8608V58.8608ZM948.384 66.0393C958.048 70.7548 965.505 77.4347 970.785 86.0809L972.492 85.0384C967.001 76.0473 959.247 69.1145 949.261 64.2419L948.384 66.0393ZM970.787 86.0834C976.063 94.6644 978.748 104.777 978.806 116.46L980.806 116.45C980.746 104.457 977.986 93.9738 972.491 85.0359L970.787 86.0834ZM979.806 115.455H934.352V117.455H979.806V115.455ZM935.348 116.364C934.685 109.069 932.563 103.382 928.867 99.4358L927.407 100.803C930.696 104.314 932.717 109.517 933.356 116.545L935.348 116.364ZM928.878 99.4478C925.242 95.4359 920.527 93.4375 914.821 93.4375V95.4375C920.004 95.4375 924.167 97.227 927.396 100.791L928.878 99.4478ZM914.821 93.4375C910.349 93.4375 906.402 94.747 903.021 97.3768L904.248 98.9555C907.259 96.6138 910.769 95.4375 914.821 95.4375V93.4375ZM903.03 97.3697C899.637 99.9455 897.056 103.829 895.235 108.927L897.119 109.6C898.849 104.754 901.24 101.24 904.239 98.9626L903.03 97.3697ZM895.237 108.924C893.409 113.981 892.514 120.29 892.514 127.818H894.514C894.514 120.431 895.394 114.371 897.118 109.603L895.237 108.924ZM892.514 127.818C892.514 135.347 893.409 141.684 895.235 146.798L897.119 146.125C895.394 141.296 894.514 135.204 894.514 127.818H892.514ZM895.237 146.802C897.058 151.841 899.638 155.717 903.021 158.348L904.248 156.77C901.239 154.429 898.847 150.907 897.118 146.122L895.237 146.802ZM903.03 158.355C906.411 160.923 910.355 162.199 914.821 162.199V160.199C910.763 160.199 907.25 159.049 904.239 156.762L903.03 158.355ZM914.821 162.199C918.59 162.199 921.967 161.332 924.92 159.572L923.897 157.854C921.287 159.409 918.272 160.199 914.821 160.199V162.199ZM924.934 159.564C927.886 157.743 930.251 155.115 932.04 151.722L930.271 150.789C928.627 153.907 926.495 156.251 923.884 157.862L924.934 159.564ZM932.037 151.728C933.894 148.263 934.986 144.095 935.349 139.257L933.355 139.107C933.007 143.738 931.969 147.62 930.274 150.783L932.037 151.728ZM934.352 140.182H979.806V138.182H934.352V140.182ZM978.807 139.167C978.631 151.034 975.915 161.333 970.691 170.097L972.409 171.121C977.839 162.012 980.627 151.359 980.806 139.197L978.807 139.167ZM970.693 170.095C965.469 178.8 958.071 185.537 948.466 190.31L949.357 192.101C959.284 187.168 966.977 180.174 972.407 171.124L970.693 170.095ZM948.464 190.312C938.926 195.08 927.486 197.486 914.11 197.486V199.486C927.723 199.486 939.484 197.038 949.359 192.1L948.464 190.312Z" fill="#54FF04" fill-opacity="0.32"/>
</svg>
