<svg width="368" height="185" viewBox="0 0 368 185" fill="none" xmlns="http://www.w3.org/2000/svg">
<path d="M0.0888672 0.181813H61.5235L103.782 103.165H105.913L148.171 0.181813H209.606V182H161.31V76.8864H159.89L119.407 180.58H90.2877L49.8048 76.1761H48.3843V182H0.0888672V0.181813ZM300.3 184.486C285.741 184.486 273.193 181.704 262.658 176.141C252.182 170.518 244.103 162.469 238.422 151.993C232.799 141.458 229.988 128.851 229.988 114.173C229.988 100.087 232.829 87.7765 238.51 77.2415C244.192 66.7064 252.212 58.5092 262.569 52.6499C272.927 46.7905 285.149 43.8608 299.235 43.8608C309.533 43.8608 318.855 45.4588 327.2 48.6548C335.545 51.8508 342.677 56.4969 348.596 62.593C354.514 68.63 359.071 75.969 362.267 84.6101C365.464 93.2512 367.062 102.987 367.062 113.818V125.182H245.258V98.1932H321.962C321.903 94.2869 320.897 90.8542 318.944 87.8949C317.05 84.8764 314.475 82.5386 311.22 80.8814C308.024 79.165 304.384 78.3068 300.3 78.3068C296.335 78.3068 292.695 79.165 289.38 80.8814C286.066 82.5386 283.403 84.8468 281.39 87.8061C279.437 90.7654 278.401 94.2277 278.283 98.1932V127.312C278.283 131.692 279.2 135.598 281.035 139.031C282.87 142.464 285.504 145.157 288.937 147.11C292.369 149.063 296.512 150.04 301.366 150.04C304.739 150.04 307.817 149.566 310.598 148.619C313.439 147.672 315.866 146.311 317.878 144.536C319.891 142.701 321.37 140.511 322.317 137.966H367.062C365.523 147.436 361.883 155.662 356.142 162.646C350.401 169.571 342.795 174.957 333.326 178.804C323.915 182.592 312.907 184.486 300.3 184.486Z" fill="#454544" fill-opacity="0.09"/>
<path d="M0.0888672 0.181812V-0.818188H-0.911133V0.181812H0.0888672ZM61.5235 0.181812L62.4487 -0.197815L62.1941 -0.818188H61.5235V0.181812ZM103.782 103.165L102.857 103.544L103.111 104.165H103.782V103.165ZM105.913 103.165V104.165H106.583L106.838 103.544L105.913 103.165ZM148.171 0.181812V-0.818188H147.501L147.246 -0.197815L148.171 0.181812ZM209.606 0.181812H210.606V-0.818188H209.606V0.181812ZM209.606 182V183H210.606V182H209.606ZM161.31 182H160.31V183H161.31V182ZM161.31 76.8864H162.31V75.8864H161.31V76.8864ZM159.89 76.8864V75.8864H159.207L158.958 76.5227L159.89 76.8864ZM119.407 180.58V181.58H120.09L120.339 180.943L119.407 180.58ZM90.2877 180.58L89.3554 180.941L89.6029 181.58H90.2877V180.58ZM49.8048 76.1761L50.7371 75.8146L50.4896 75.1761H49.8048V76.1761ZM48.3843 76.1761V75.1761H47.3843V76.1761H48.3843ZM48.3843 182V183H49.3843V182H48.3843ZM0.0888672 182H-0.911133V183H0.0888672V182ZM0.0888672 1.18181H61.5235V-0.818188H0.0888672V1.18181ZM60.5984 0.56144L102.857 103.544L104.707 102.785L62.4487 -0.197815L60.5984 0.56144ZM103.782 104.165H105.913V102.165H103.782V104.165ZM106.838 103.544L149.096 0.56144L147.246 -0.197815L104.988 102.785L106.838 103.544ZM148.171 1.18181H209.606V-0.818188H148.171V1.18181ZM208.606 0.181812V182H210.606V0.181812H208.606ZM209.606 181H161.31V183H209.606V181ZM162.31 182V76.8864H160.31V182H162.31ZM161.31 75.8864H159.89V77.8864H161.31V75.8864ZM158.958 76.5227L118.476 180.216L120.339 180.943L160.822 77.25L158.958 76.5227ZM119.407 179.58H90.2877V181.58H119.407V179.58ZM91.2201 180.218L50.7371 75.8146L48.8724 76.5377L89.3554 180.941L91.2201 180.218ZM49.8048 75.1761H48.3843V77.1761H49.8048V75.1761ZM47.3843 76.1761V182H49.3843V76.1761H47.3843ZM48.3843 181H0.0888672V183H48.3843V181ZM1.08887 182V0.181812H-0.911133V182H1.08887ZM262.658 176.141L262.185 177.022L262.191 177.025L262.658 176.141ZM238.422 151.993L237.539 152.464L237.543 152.47L238.422 151.993ZM238.51 77.2415L239.391 77.7162L238.51 77.2415ZM262.569 52.6499L263.062 53.5202V53.5202L262.569 52.6499ZM327.2 48.6548L327.558 47.721L327.2 48.6548ZM348.596 62.593L347.878 63.2896L347.882 63.2931L348.596 62.593ZM362.267 84.6101L361.33 84.957L362.267 84.6101ZM367.062 125.182V126.182H368.062V125.182H367.062ZM245.258 125.182H244.258V126.182H245.258V125.182ZM245.258 98.1932V97.1932H244.258V98.1932H245.258ZM321.962 98.1932V99.1932H322.977L322.962 98.178L321.962 98.1932ZM318.944 87.8949L318.097 88.4264L318.103 88.4361L318.109 88.4457L318.944 87.8949ZM311.22 80.8814L310.747 81.7624L310.756 81.7676L310.766 81.7726L311.22 80.8814ZM289.38 80.8814L289.828 81.7758L289.834 81.7726L289.84 81.7694L289.38 80.8814ZM281.39 87.8061L280.563 87.2437L280.556 87.2553L281.39 87.8061ZM278.283 98.1932L277.284 98.1633L277.283 98.1783V98.1932H278.283ZM281.035 139.031L280.153 139.503L281.035 139.031ZM288.937 147.11L288.442 147.979L288.937 147.11ZM310.598 148.619L310.282 147.671L310.276 147.673L310.598 148.619ZM317.878 144.536L318.54 145.285L318.546 145.28L318.552 145.274L317.878 144.536ZM322.317 137.966V136.966H321.622L321.38 137.617L322.317 137.966ZM367.062 137.966L368.049 138.126L368.237 136.966H367.062V137.966ZM356.142 162.646L356.912 163.285L356.914 163.281L356.142 162.646ZM333.326 178.804L333.699 179.732L333.702 179.73L333.326 178.804ZM300.3 183.486C285.868 183.486 273.488 180.729 263.125 175.256L262.191 177.025C272.899 182.679 285.613 185.486 300.3 185.486V183.486ZM263.131 175.26C252.828 169.729 244.89 161.821 239.301 151.516L237.543 152.47C243.317 163.117 251.537 171.307 262.185 177.022L263.131 175.26ZM239.304 151.522C233.774 141.161 230.988 128.724 230.988 114.173H228.988C228.988 128.978 231.824 141.754 237.539 152.464L239.304 151.522ZM230.988 114.173C230.988 100.223 233.8 88.0815 239.391 77.7162L237.63 76.7668C231.857 87.4715 228.988 99.9507 228.988 114.173H230.988ZM239.391 77.7162C244.983 67.3459 252.869 59.2863 263.062 53.5202L262.077 51.7795C251.555 57.7322 243.401 66.067 237.63 76.7668L239.391 77.7162ZM263.062 53.5202C273.244 47.7602 285.289 44.8608 299.235 44.8608V42.8608C285.008 42.8608 272.61 45.8207 262.077 51.7795L263.062 53.5202ZM299.235 44.8608C309.429 44.8608 318.627 46.4425 326.842 49.5887L327.558 47.721C319.082 44.4751 309.637 42.8608 299.235 42.8608V44.8608ZM326.842 49.5887C335.059 52.7355 342.066 57.3032 347.878 63.2896L349.313 61.8965C343.288 55.6906 336.031 50.9662 327.558 47.721L326.842 49.5887ZM347.882 63.2931C353.693 69.2207 358.178 76.4361 361.33 84.957L363.205 84.2632C359.965 75.5019 355.335 68.0393 349.31 61.893L347.882 63.2931ZM361.33 84.957C364.478 93.4694 366.062 103.085 366.062 113.818H368.062C368.062 102.889 366.449 93.0329 363.205 84.2632L361.33 84.957ZM366.062 113.818V125.182H368.062V113.818H366.062ZM367.062 124.182H245.258V126.182H367.062V124.182ZM246.258 125.182V98.1932H244.258V125.182H246.258ZM245.258 99.1932H321.962V97.1932H245.258V99.1932ZM322.962 98.178C322.9 94.1012 321.847 90.4785 319.778 87.344L318.109 88.4457C319.947 91.2299 320.906 94.4726 320.962 98.2083L322.962 98.178ZM319.791 87.3634C317.798 84.1877 315.086 81.7274 311.674 79.9902L310.766 81.7726C313.864 83.3498 316.301 85.5652 318.097 88.4264L319.791 87.3634ZM311.693 80.0004C308.334 78.1965 304.528 77.3068 300.3 77.3068V79.3068C304.24 79.3068 307.714 80.1335 310.747 81.7624L311.693 80.0004ZM300.3 77.3068C296.185 77.3068 292.386 78.1988 288.921 79.9934L289.84 81.7694C293.004 80.1312 296.484 79.3068 300.3 79.3068V77.3068ZM288.933 79.987C285.472 81.7178 282.675 84.138 280.563 87.2438L282.217 88.3684C284.13 85.5556 286.66 83.3594 289.828 81.7758L288.933 79.987ZM280.556 87.2553C278.489 90.3874 277.407 94.035 277.284 98.1633L279.283 98.223C279.396 94.4205 280.386 91.1433 282.225 88.3569L280.556 87.2553ZM277.283 98.1932V127.312H279.283V98.1932H277.283ZM277.283 127.312C277.283 131.836 278.232 135.907 280.153 139.503L281.917 138.56C280.169 135.289 279.283 131.549 279.283 127.312H277.283ZM280.153 139.503C282.078 143.104 284.848 145.934 288.442 147.979L289.431 146.241C286.16 144.38 283.662 141.824 281.917 138.56L280.153 139.503ZM288.442 147.979C292.056 150.036 296.378 151.04 301.366 151.04V149.04C296.646 149.04 292.682 148.091 289.431 146.241L288.442 147.979ZM301.366 151.04C304.833 151.04 308.021 150.553 310.921 149.566L310.276 147.673C307.612 148.58 304.645 149.04 301.366 149.04V151.04ZM310.915 149.568C313.868 148.584 316.416 147.159 318.54 145.285L317.217 143.786C315.316 145.463 313.011 146.761 310.282 147.671L310.915 149.568ZM318.552 145.274C320.682 143.333 322.252 141.009 323.254 138.315L321.38 137.617C320.489 140.013 319.1 142.069 317.205 143.797L318.552 145.274ZM322.317 138.966H367.062V136.966H322.317V138.966ZM366.074 137.806C364.562 147.112 360.991 155.172 355.369 162.011L356.914 163.281C362.774 156.153 366.483 147.759 368.049 138.126L366.074 137.806ZM355.372 162.008C349.75 168.789 342.287 174.084 332.949 177.878L333.702 179.73C343.304 175.83 351.052 170.353 356.912 163.285L355.372 162.008ZM332.952 177.876C323.685 181.606 312.809 183.486 300.3 183.486V185.486C313.005 185.486 324.145 183.577 333.699 179.732L332.952 177.876Z" fill="black"/>
</svg>
