<svg width="51" height="46" viewBox="0 0 51 46" fill="none" xmlns="http://www.w3.org/2000/svg">
<line x1="9.854" y1="13.9783" x2="9.854" y2="31.1176" stroke="white"/>
<line x1="11.3843" y1="15.8146" x2="11.3843" y2="30.3524" stroke="white"/>
<line x1="23.9326" y1="22.854" x2="23.9326" y2="37.3918" stroke="white"/>
<line x1="25.616" y1="23.007" x2="25.616" y2="37.5448" stroke="white"/>
<line x1="38.0112" y1="15.9677" x2="38.0112" y2="30.5054" stroke="white"/>
<rect x="1" y="1" width="49" height="44" stroke="white" stroke-width="2"/>
<path d="M25.2304 23.0939L30.7014 19.8699L30.7014 24.3078L32.3847 23.3896L32.3847 18.9518L37.5112 15.8912M25.2688 37.4683L37.5111 30.2759M39.2709 31.0411L24.3507 39.6107L9.50686 31.1941M23.509 37.3152L11.1136 30.2712M23.509 22.9455L11.1136 15.9015M36.7461 14.2844L24.2742 7.24503L19.2242 10.0761L31.6961 17.3449L36.7461 14.3609M39.2709 13.9783L24.5036 5.33217M9.50692 13.9018L24.2742 5.33217M24.5802 21.5532L12.1084 14.2844L17.5409 11.1473L29.7067 18.3396L24.5802 21.5532Z" stroke="white"/>
<line x1="39.6946" y1="13.9783" x2="39.6946" y2="30.9646" stroke="white"/>
</svg>
