<svg width="1108" height="200" viewBox="0 0 1108 200" fill="none" xmlns="http://www.w3.org/2000/svg">
<path d="M103.473 71.5C102.998 65.5578 100.77 60.9228 96.7883 57.5952C92.8664 54.2675 86.8945 52.6037 78.8724 52.6037C73.7621 52.6037 69.5728 53.2276 66.3046 54.4755C63.0958 55.6639 60.7189 57.2981 59.1739 59.3778C57.629 61.4576 56.8268 63.8345 56.7673 66.5085C56.6485 68.7071 57.0347 70.6978 57.9261 72.4805C58.8768 74.2037 60.3624 75.7784 62.3827 77.2045C64.4031 78.5713 66.988 79.8191 70.1374 80.9482C73.2867 82.0772 77.0304 83.0874 81.3682 83.9787L96.3426 87.1875C106.444 89.3267 115.09 92.1493 122.28 95.6552C129.471 99.1611 135.353 103.291 139.929 108.045C144.504 112.739 147.862 118.028 150.001 123.911C152.2 129.793 153.329 136.211 153.388 143.163C153.329 155.167 150.328 165.328 144.386 173.647C138.443 181.966 129.946 188.295 118.893 192.632C107.9 196.97 94.6788 199.139 79.229 199.139C63.3632 199.139 49.5178 196.792 37.6928 192.098C25.9271 187.403 16.7761 180.183 10.2396 170.438C3.76259 160.634 0.494365 148.095 0.434942 132.824H47.4974C47.7946 138.41 49.191 143.104 51.6867 146.907C54.1825 150.71 57.6884 153.592 62.2045 155.553C66.78 157.514 72.2171 158.494 78.5159 158.494C83.8045 158.494 88.2315 157.841 91.7968 156.533C95.3621 155.226 98.0659 153.414 99.908 151.096C101.75 148.779 102.701 146.134 102.76 143.163C102.701 140.371 101.78 137.934 99.9971 135.854C98.2738 133.715 95.4216 131.814 91.4403 130.15C87.459 128.427 82.0813 126.822 75.3071 125.337L57.1239 121.415C40.961 117.909 28.2149 112.056 18.8856 103.855C9.6157 95.5958 5.01046 84.3352 5.06989 70.0739C5.01046 58.4865 8.10043 48.355 14.3398 39.6793C20.6385 30.9442 29.3439 24.1404 40.4559 19.2677C51.6273 14.3951 64.4328 11.9588 78.8724 11.9588C93.6092 11.9588 106.355 14.4248 117.111 19.3569C127.866 24.2889 136.156 31.2414 141.979 40.2141C147.862 49.1275 150.833 59.5561 150.892 71.5H103.473ZM239.81 199.496C225.192 199.496 212.595 196.703 202.018 191.117C191.5 185.472 183.389 177.391 177.684 166.873C172.039 156.296 169.216 143.639 169.216 128.902C169.216 114.759 172.069 102.4 177.773 91.8224C183.478 81.2453 191.529 73.0153 201.928 67.1325C212.327 61.2496 224.598 58.3082 238.741 58.3082C249.08 58.3082 258.439 59.9126 266.818 63.1214C275.196 66.3303 282.357 70.9949 288.299 77.1154C294.241 83.1765 298.817 90.5449 302.025 99.2205C305.234 107.896 306.839 117.671 306.839 128.545V139.955H184.547V112.858H261.559C261.499 108.936 260.489 105.49 258.528 102.518C256.627 99.4879 254.042 97.1407 250.774 95.4769C247.565 93.7537 243.91 92.892 239.81 92.892C235.829 92.892 232.174 93.7537 228.847 95.4769C225.519 97.1407 222.845 99.4582 220.825 102.429C218.864 105.4 217.824 108.877 217.705 112.858V142.094C217.705 146.491 218.626 150.413 220.468 153.859C222.31 157.306 224.955 160.01 228.401 161.971C231.848 163.931 236.007 164.912 240.88 164.912C244.267 164.912 247.357 164.437 250.15 163.486C253.002 162.535 255.438 161.168 257.459 159.386C259.479 157.544 260.965 155.345 261.915 152.79H306.839C305.294 162.297 301.639 170.557 295.875 177.569C290.111 184.521 282.475 189.929 272.968 193.791C263.52 197.594 252.467 199.496 239.81 199.496ZM328.171 197V60.0909H375.946V86.1179H377.373C379.868 76.4915 383.82 69.4499 389.227 64.9932C394.694 60.5366 401.082 58.3082 408.391 58.3082C410.53 58.3082 412.64 58.4865 414.72 58.843C416.859 59.1402 418.909 59.5858 420.87 60.18V102.162C418.433 101.33 415.433 100.706 411.867 100.29C408.302 99.8742 405.242 99.6662 402.687 99.6662C397.873 99.6662 393.535 100.766 389.673 102.964C385.87 105.103 382.869 108.134 380.671 112.056C378.472 115.918 377.373 120.464 377.373 125.693V197H328.171ZM580.404 60.0909L534.411 197H477.365L431.372 60.0909H483.07L505.175 150.651H506.601L528.706 60.0909H580.404ZM595.653 197V60.0909H644.854V197H595.653ZM620.253 45.8295C613.598 45.8295 607.894 43.6309 603.14 39.2337C598.386 34.8364 596.009 29.5478 596.009 23.3679C596.009 17.188 598.386 11.8994 603.14 7.50212C607.894 3.10487 613.598 0.90625 620.253 0.90625C626.968 0.90625 632.673 3.10487 637.367 7.50212C642.121 11.8994 644.498 17.188 644.498 23.3679C644.498 29.5478 642.121 34.8364 637.367 39.2337C632.673 43.6309 626.968 45.8295 620.253 45.8295ZM737.137 199.496C722.281 199.496 709.565 196.554 698.988 190.672C688.411 184.729 680.299 176.47 674.654 165.892C669.009 155.256 666.187 142.926 666.187 128.902C666.187 114.878 669.009 102.578 674.654 92.0007C680.299 81.3641 688.411 73.1044 698.988 67.2216C709.565 61.2794 722.281 58.3082 737.137 58.3082C750.566 58.3082 762.183 60.7446 771.988 65.6172C781.852 70.4304 789.488 77.264 794.895 86.1179C800.303 94.9124 803.036 105.252 803.096 117.136H757.459C756.806 109.946 754.726 104.479 751.22 100.736C747.774 96.9328 743.317 95.0312 737.85 95.0312C733.572 95.0312 729.828 96.2791 726.619 98.7749C723.41 101.211 720.915 104.925 719.132 109.917C717.349 114.849 716.458 121.058 716.458 128.545C716.458 136.033 717.349 142.272 719.132 147.263C720.915 152.196 723.41 155.909 726.619 158.405C729.828 160.842 733.572 162.06 737.85 162.06C741.475 162.06 744.684 161.228 747.476 159.564C750.269 157.841 752.527 155.345 754.251 152.077C756.033 148.749 757.103 144.708 757.459 139.955H803.096C802.917 152.017 800.154 162.535 794.806 171.508C789.458 180.421 781.882 187.314 772.077 192.187C762.332 197.059 750.685 199.496 737.137 199.496ZM890.253 199.496C875.635 199.496 863.038 196.703 852.461 191.117C841.943 185.472 833.832 177.391 828.127 166.873C822.482 156.296 819.659 143.639 819.659 128.902C819.659 114.759 822.512 102.4 828.216 91.8224C833.921 81.2453 841.972 73.0153 852.371 67.1325C862.77 61.2496 875.041 58.3082 889.184 58.3082C899.523 58.3082 908.882 59.9126 917.261 63.1214C925.639 66.3303 932.8 70.9949 938.742 77.1154C944.684 83.1765 949.26 90.5449 952.468 99.2205C955.677 107.896 957.282 117.671 957.282 128.545V139.955H834.99V112.858H912.002C911.942 108.936 910.932 105.49 908.971 102.518C907.07 99.4879 904.485 97.1407 901.217 95.4769C898.008 93.7537 894.353 92.892 890.253 92.892C886.272 92.892 882.617 93.7537 879.29 95.4769C875.962 97.1407 873.288 99.4582 871.268 102.429C869.307 105.4 868.267 108.877 868.148 112.858V142.094C868.148 146.491 869.069 150.413 870.911 153.859C872.753 157.306 875.398 160.01 878.844 161.971C882.291 163.931 886.45 164.912 891.323 164.912C894.71 164.912 897.8 164.437 900.593 163.486C903.445 162.535 905.881 161.168 907.902 159.386C909.922 157.544 911.408 155.345 912.358 152.79H957.282C955.737 162.297 952.082 170.557 946.318 177.569C940.554 184.521 932.918 189.929 923.411 193.791C913.963 197.594 902.91 199.496 890.253 199.496ZM1103.76 104.658H1058.48C1058.24 101.865 1057.26 99.4582 1055.54 97.4379C1053.81 95.4175 1051.58 93.8725 1048.85 92.8029C1046.18 91.6739 1043.21 91.1094 1039.94 91.1094C1035.72 91.1094 1032.09 91.8819 1029.06 93.4268C1026.03 94.9718 1024.55 97.1705 1024.61 100.023C1024.55 102.043 1025.41 103.915 1027.19 105.638C1029.03 107.361 1032.57 108.698 1037.8 109.649L1065.61 114.641C1079.63 117.196 1090.06 121.504 1096.89 127.565C1103.79 133.567 1107.26 141.618 1107.32 151.72C1107.26 161.465 1104.35 169.933 1098.59 177.123C1092.88 184.254 1085.07 189.78 1075.15 193.702C1065.28 197.565 1054.02 199.496 1041.36 199.496C1020.45 199.496 1004.08 195.217 992.251 186.661C980.486 178.104 973.919 166.813 972.553 152.79H1021.4C1022.05 157.128 1024.19 160.485 1027.82 162.862C1031.5 165.179 1036.13 166.338 1041.72 166.338C1046.24 166.338 1049.95 165.566 1052.86 164.021C1055.83 162.476 1057.35 160.277 1057.41 157.425C1057.35 154.81 1056.04 152.73 1053.49 151.185C1050.99 149.64 1047.07 148.393 1041.72 147.442L1017.48 143.163C1003.51 140.727 993.053 136.092 986.101 129.259C979.149 122.425 975.702 113.63 975.762 102.875C975.702 93.3674 978.198 85.3157 983.249 78.7198C988.359 72.0645 995.638 67.0136 1005.09 63.5671C1014.59 60.0612 1025.85 58.3082 1038.87 58.3082C1058.66 58.3082 1074.25 62.4084 1085.66 70.6087C1097.13 78.8089 1103.16 90.1586 1103.76 104.658Z" fill="#454544" fill-opacity="0.11"/>
</svg>
