<svg width="816" height="185" viewBox="0 0 816 185" fill="none" xmlns="http://www.w3.org/2000/svg">
<path d="M53.9831 182L0.360973 0.181813H55.4036L80.2615 112.043H81.682L111.156 0.181813H154.48L183.955 112.398H185.375L210.233 0.181813H265.276L211.654 182H164.423L133.529 80.4375H132.108L101.213 182H53.9831ZM333.043 184.486C318.247 184.486 305.581 181.556 295.046 175.697C284.511 169.778 276.432 161.551 270.809 151.016C265.187 140.422 262.375 128.141 262.375 114.173C262.375 100.205 265.187 87.9541 270.809 77.419C276.432 66.8248 284.511 58.598 295.046 52.7386C305.581 46.8201 318.247 43.8608 333.043 43.8608C347.839 43.8608 360.505 46.8201 371.04 52.7386C381.575 58.598 389.654 66.8248 395.277 77.419C400.899 87.9541 403.711 100.205 403.711 114.173C403.711 128.141 400.899 140.422 395.277 151.016C389.654 161.551 381.575 169.778 371.04 175.697C360.505 181.556 347.839 184.486 333.043 184.486ZM333.398 148.264C337.541 148.264 341.122 146.873 344.14 144.092C347.159 141.31 349.497 137.344 351.154 132.195C352.811 127.046 353.64 120.92 353.64 113.818C353.64 106.657 352.811 100.531 351.154 95.441C349.497 90.2919 347.159 86.3265 344.14 83.5447C341.122 80.763 337.541 79.3722 333.398 79.3722C329.018 79.3722 325.26 80.763 322.123 83.5447C318.986 86.3265 316.589 90.2919 314.932 95.441C313.275 100.531 312.446 106.657 312.446 113.818C312.446 120.92 313.275 127.046 314.932 132.195C316.589 137.344 318.986 141.31 322.123 144.092C325.26 146.873 329.018 148.264 333.398 148.264ZM424.847 182V45.6364H472.432V71.5597H473.853C476.338 61.9716 480.274 54.9581 485.66 50.5192C491.105 46.0803 497.468 43.8608 504.748 43.8608C506.878 43.8608 508.979 44.0384 511.051 44.3935C513.181 44.6894 515.223 45.1333 517.176 45.7251V87.5398C514.75 86.7112 511.761 86.0897 508.21 85.6754C504.659 85.2611 501.611 85.054 499.066 85.054C494.272 85.054 489.951 86.1489 486.104 88.3388C482.316 90.4695 479.327 93.4879 477.137 97.3942C474.948 101.241 473.853 105.769 473.853 110.977V182H424.847ZM578.529 149.685L578.885 91.446H585.277L618.302 45.6364H673.345L617.947 117.014H604.098L578.529 149.685ZM534.495 182V0.181813H583.501V182H534.495ZM618.657 182L587.407 128.023L619.368 93.2216L674.765 182H618.657ZM812.002 90.0256H766.902C766.665 87.2438 765.689 84.8468 763.972 82.8345C762.256 80.8222 760.037 79.2834 757.314 78.218C754.651 77.0935 751.691 76.5312 748.436 76.5312C744.234 76.5312 740.624 77.3007 737.605 78.8395C734.587 80.3783 733.107 82.5682 733.166 85.4091C733.107 87.4214 733.965 89.2857 735.741 91.0021C737.576 92.7185 741.097 94.0502 746.306 94.9972L774.004 99.9688C787.972 102.514 798.359 106.805 805.166 112.842C812.031 118.819 815.494 126.839 815.553 136.901C815.494 146.607 812.593 155.041 806.852 162.202C801.171 169.305 793.388 174.809 783.504 178.715C773.679 182.562 762.463 184.486 749.857 184.486C729.023 184.486 712.718 180.224 700.94 171.702C689.221 163.179 682.681 151.934 681.32 137.966H729.97C730.621 142.286 732.752 145.63 736.362 147.998C740.032 150.306 744.648 151.46 750.212 151.46C754.71 151.46 758.409 150.691 761.309 149.152C764.268 147.613 765.778 145.423 765.837 142.582C765.778 139.978 764.476 137.907 761.931 136.368C759.445 134.829 755.539 133.586 750.212 132.639L726.064 128.378C712.155 125.951 701.739 121.335 694.814 114.528C687.889 107.722 684.457 98.9626 684.516 88.25C684.457 78.7803 686.942 70.7607 691.973 64.191C697.063 57.5623 704.313 52.5315 713.724 49.0987C723.194 45.6068 734.409 43.8608 747.371 43.8608C767.08 43.8608 782.616 47.9446 793.98 56.1122C805.402 64.2798 811.41 75.5843 812.002 90.0256Z" fill="#54FF04" fill-opacity="0.07"/>
</svg>
